<svg width="22" height="22" viewBox="0 0 22 22" fill="none" xmlns="http://www.w3.org/2000/svg">
<g id="Google" clip-path="url(#clip0_248_39558)">
<path id="Vector" d="M21.7852 11.2532C21.7852 10.5055 21.7246 9.75369 21.5953 9.01807H11.2197V13.254H17.1613C16.9148 14.6201 16.1225 15.8286 14.9625 16.5966V19.3451H18.5073C20.5888 17.4292 21.7852 14.5999 21.7852 11.2532Z" fill="#4285F4"/>
<path id="Vector_2" d="M11.2195 22.0006C14.1863 22.0006 16.6882 21.0265 18.5111 19.345L14.9664 16.5965C13.9801 17.2675 12.7069 17.6474 11.2236 17.6474C8.35382 17.6474 5.92061 15.7114 5.04756 13.1084H1.38965V15.9418C3.257 19.6563 7.06042 22.0006 11.2195 22.0006Z" fill="#34A853"/>
<path id="Vector_3" d="M5.04372 13.1085C4.58295 11.7423 4.58295 10.263 5.04372 8.89684V6.06348H1.38985C-0.170316 9.17169 -0.170316 12.8336 1.38985 15.9418L5.04372 13.1085Z" fill="#FBBC04"/>
<path id="Vector_4" d="M11.2195 4.35385C12.7878 4.3296 14.3035 4.91972 15.4393 6.00295L18.5798 2.8624C16.5912 0.995046 13.9518 -0.0315938 11.2195 0.000741277C7.06042 0.000741277 3.257 2.34504 1.38965 6.06357L5.04352 8.89694C5.91252 6.28992 8.34978 4.35385 11.2195 4.35385Z" fill="#EA4335"/>
</g>
<defs>
<clipPath id="clip0_248_39558">
<rect width="22" height="22" fill="white"/>
</clipPath>
</defs>
</svg>
