<svg width="46" height="46" viewBox="0 0 46 46" fill="none" xmlns="http://www.w3.org/2000/svg">
<path fill-rule="evenodd" clip-rule="evenodd" d="M0.25 23C0.25 10.435 10.435 0.25 23 0.25C35.565 0.25 45.75 10.435 45.75 23C45.75 35.565 35.565 45.75 23 45.75C10.435 45.75 0.25 35.565 0.25 23ZM32.9727 20.7063C33.3814 20.9338 33.7219 21.2664 33.959 21.6697C34.1961 22.0729 34.3211 22.5322 34.3211 23C34.3211 23.4678 34.1961 23.9271 33.959 24.3303C33.7219 24.7336 33.3814 25.0662 32.9727 25.2937L19.899 32.5573C19.4995 32.7791 19.0491 32.8927 18.5922 32.887C18.1353 32.8813 17.6878 32.7564 17.294 32.5248C16.9002 32.2931 16.5737 31.9626 16.3467 31.5661C16.1198 31.1695 16.0003 30.7206 16 30.2637V15.7363C16 13.7367 18.149 12.4697 19.899 13.4427L32.9727 20.7063Z" fill="white"/>
</svg>
