<svg width="24" height="24" viewBox="0 0 24 24" fill="none" xmlns="http://www.w3.org/2000/svg">
<path d="M18.9041 14.708C18.6019 15.0008 18.4631 15.4243 18.5319 15.8396L19.5691 21.5796C19.6566 22.0661 19.4512 22.5585 19.0441 22.8396C18.6451 23.1313 18.1142 23.1663 17.6791 22.933L12.5119 20.238C12.3322 20.1423 12.1327 20.091 11.9286 20.0851H11.6124C11.5027 20.1015 11.3954 20.1365 11.2974 20.1901L6.12905 22.898C5.87355 23.0263 5.58422 23.0718 5.30072 23.0263C4.61005 22.8956 4.14922 22.2376 4.26239 21.5435L5.30072 15.8035C5.36955 15.3846 5.23072 14.9588 4.92855 14.6613L0.71572 10.578C0.363386 10.2361 0.240886 9.7228 0.401886 9.25963C0.55822 8.79764 0.95722 8.46047 1.43905 8.38464L7.23739 7.54347C7.67839 7.49797 8.06572 7.22964 8.26405 6.83297L10.8191 1.59464C10.8797 1.47797 10.9579 1.37064 11.0524 1.27964L11.1574 1.19797C11.2122 1.1373 11.2752 1.08714 11.3452 1.0463L11.4724 0.999635L11.6707 0.917969H12.1619C12.6006 0.963469 12.9867 1.22597 13.1886 1.61797L15.7774 6.83297C15.9641 7.21447 16.3269 7.4793 16.7457 7.54347L22.5441 8.38464C23.0341 8.45464 23.4436 8.79297 23.6057 9.25963C23.7586 9.72747 23.6267 10.2408 23.2674 10.578L18.9041 14.708Z" fill="#98A2B3"/>
</svg>
