<svg width="257" height="230" viewBox="0 0 257 230" fill="none" xmlns="http://www.w3.org/2000/svg">
<g id="Illustration">
<g id="freepik--background-simple--inject-2">
<path id="Vector" d="M248.001 121.678C249.282 104.655 245.323 86.8819 240.018 71.0633C232.17 47.5116 216.844 23.377 191.089 17.803C176.238 14.5995 161.124 18.0336 148.387 26.0807C136.143 33.8202 126.604 43.8213 111.541 45.7562C96.3119 47.7167 80.6856 46.9286 65.3796 46.9286C26.0222 46.9286 -5.9161 88.2721 2.06686 131.339C10.0498 174.406 47.6966 204.269 79.6348 204.269C108.338 204.269 131.953 187.053 159.215 182.428C172.733 180.134 186.309 182.85 199.687 179.416C215.236 175.418 229.857 165.891 238.474 152.097C244.343 142.692 247.2 132.332 248.001 121.678Z" fill="#29B65C"/>
<path id="Vector_2" opacity="0.7" d="M248.001 121.678C249.282 104.655 245.323 86.8819 240.018 71.0633C232.17 47.5116 216.844 23.377 191.089 17.803C176.238 14.5995 161.124 18.0336 148.387 26.0807C136.143 33.8202 126.604 43.8213 111.541 45.7562C96.3119 47.7167 80.6856 46.9286 65.3796 46.9286C26.0222 46.9286 -5.9161 88.2721 2.06686 131.339C10.0498 174.406 47.6966 204.269 79.6348 204.269C108.338 204.269 131.953 187.053 159.215 182.428C172.733 180.134 186.309 182.85 199.687 179.416C215.236 175.418 229.857 165.891 238.474 152.097C244.343 142.692 247.2 132.332 248.001 121.678Z" fill="white"/>
</g>
<g id="freepik--Plants--inject-2">
<path id="Vector_3" d="M243.394 115.701C243.394 115.701 243.394 112.497 238.91 108.058C234.425 103.618 231.58 101.042 231.58 101.042C231.58 101.042 229.351 108.371 233.502 112.837C236.55 115.973 239.855 118.849 243.382 121.435L243.394 115.701Z" fill="#29B65C"/>
<path id="Vector_4" d="M236.923 135.6C236.923 135.6 236.923 132.397 232.439 127.957C227.954 123.517 225.122 120.941 225.122 120.941C225.122 120.941 222.886 128.271 227.044 132.736C230.092 135.873 233.396 138.749 236.923 141.334V135.6Z" fill="#29B65C"/>
<path id="Vector_5" d="M243.113 121.127C243.113 121.127 243.452 117.962 248.36 113.996C253.268 110.03 256.388 107.801 256.388 107.801C256.388 107.801 257.829 115.322 253.242 119.333C249.88 122.131 246.291 124.642 242.511 126.842L243.113 121.127Z" fill="#29B65C"/>
<path id="Vector_6" d="M235.297 144.628C235.297 144.628 235.937 141.514 241.261 138.086C246.585 134.659 249.891 132.769 249.891 132.769C249.891 132.769 250.532 140.406 245.554 143.897C241.916 146.327 238.083 148.448 234.092 150.24L235.297 144.628Z" fill="#29B65C"/>
<path id="Vector_7" d="M236.763 170.255C236.763 170.255 236.763 167.051 241.248 162.605C245.733 158.158 248.571 155.596 248.571 155.596C248.571 155.596 250.807 162.925 246.649 167.384C243.603 170.524 240.298 173.402 236.77 175.989L236.763 170.255Z" fill="#29B65C"/>
<path id="Vector_8" d="M236.693 176.508C236.693 176.508 237.141 173.356 233.361 168.307C229.581 163.259 227.102 160.324 227.102 160.324C227.102 160.324 223.854 167.263 227.32 172.267C229.889 175.805 232.75 179.123 235.873 182.184L236.693 176.508Z" fill="#29B65C"/>
<path id="Vector_9" d="M232.291 195.044C232.291 195.044 232.291 191.84 236.776 187.4C241.261 182.96 244.106 180.385 244.106 180.385C244.106 180.385 246.335 187.714 242.184 192.18C239.135 195.317 235.83 198.195 232.304 200.784L232.291 195.044Z" fill="#29B65C"/>
<path id="Vector_10" d="M235.27 211.849C235.27 211.849 234.463 208.767 237.647 203.321C240.832 197.875 242.965 194.685 242.965 194.685C242.965 194.685 246.976 201.207 244.099 206.576C241.947 210.382 239.48 214.002 236.725 217.397L235.27 211.849Z" fill="#29B65C"/>
<path id="Vector_11" d="M243.798 114.887C243.574 118.204 243.167 121.506 242.581 124.779C240.812 133.89 236.405 139.771 234.643 147.997C232.881 156.224 237.942 166.827 236.565 177.399C235.187 187.97 231.1 193.845 232.272 200.899C233.445 207.953 239.621 227.058 239.621 227.058" stroke="#263238" stroke-width="0.606517" stroke-linecap="round" stroke-linejoin="round"/>
<path id="Vector_12" d="M243.074 123.248L247.879 119.558" stroke="#263238" stroke-width="0.606517" stroke-linecap="round" stroke-linejoin="round"/>
<path id="Vector_13" d="M243.298 119L241.28 115.419" stroke="#263238" stroke-width="0.606517" stroke-linecap="round" stroke-linejoin="round"/>
<path id="Vector_14" d="M234.912 147.619C234.912 147.619 238.935 144.602 243.074 141.584" stroke="#263238" stroke-width="0.606517" stroke-linecap="round" stroke-linejoin="round"/>
<path id="Vector_15" d="M236.924 141.334C236.924 141.334 233.566 134.761 229.767 130.404" stroke="#263238" stroke-width="0.606517" stroke-linecap="round" stroke-linejoin="round"/>
<path id="Vector_16" d="M236.923 174.791C239.219 170.549 242.119 166.664 245.534 163.259" stroke="#263238" stroke-width="0.606517" stroke-linecap="round" stroke-linejoin="round"/>
<path id="Vector_17" d="M236.142 179.264C234.921 176.388 233.461 173.619 231.778 170.986C229.434 167.52 229.094 167.071 229.094 167.071" stroke="#263238" stroke-width="0.606517" stroke-linecap="round" stroke-linejoin="round"/>
<path id="Vector_18" d="M232.291 200.899C233.313 198.374 234.525 195.93 235.918 193.589C237.311 191.413 238.882 189.356 240.614 187.438" stroke="#263238" stroke-width="0.606517" stroke-linecap="round" stroke-linejoin="round"/>
<path id="Vector_19" d="M236.725 217.396C236.491 214.982 236.907 212.549 237.929 210.349C239.608 207.107 241.504 202.859 242.286 201.181" stroke="#263238" stroke-width="0.606517" stroke-linecap="round" stroke-linejoin="round"/>
<path id="Vector_20" d="M206.991 158.274C206.991 158.274 206.645 156.275 208.958 152.988C211.271 149.702 212.802 147.799 212.802 147.799C212.802 147.799 214.993 152.156 212.879 155.397C211.309 157.697 209.549 159.861 207.619 161.868L206.991 158.274Z" fill="#29B65C"/>
<path id="Vector_21" d="M213.212 170.05C213.212 170.05 212.866 168.051 215.179 164.765C217.492 161.478 219.023 159.575 219.023 159.575C219.023 159.575 221.214 163.932 219.1 167.18C217.528 169.477 215.769 171.639 213.84 173.645L213.212 170.05Z" fill="#29B65C"/>
<path id="Vector_22" d="M207.753 161.644C207.753 161.644 207.202 159.722 203.691 157.742C200.18 155.763 197.989 154.725 197.989 154.725C197.989 154.725 197.899 159.6 201.192 161.612C203.604 163 206.126 164.185 208.733 165.155L207.753 161.644Z" fill="#29B65C"/>
<path id="Vector_23" d="M215.211 175.535C215.211 175.535 214.455 173.651 210.764 172.075C207.074 170.499 204.767 169.679 204.767 169.679C204.767 169.679 205.19 174.535 208.701 176.188C211.245 177.315 213.879 178.228 216.575 178.917L215.211 175.535Z" fill="#29B65C"/>
<path id="Vector_24" d="M217.069 191.763C217.069 191.763 216.729 189.764 213.443 187.451C210.156 185.138 208.086 183.851 208.086 183.851C208.086 183.851 207.484 188.688 210.566 191.033C212.817 192.672 215.202 194.119 217.697 195.357L217.069 191.763Z" fill="#29B65C"/>
<path id="Vector_25" d="M217.799 195.677C217.799 195.677 217.158 193.755 218.997 190.167C220.836 186.579 222.053 184.484 222.053 184.484C222.053 184.484 224.84 188.482 223.213 192C221.987 194.497 220.553 196.886 218.927 199.143L217.799 195.677Z" fill="#29B65C"/>
<path id="Vector_26" d="M223.399 211.791C223.399 211.791 223.629 209.779 226.775 207.306C229.921 204.833 231.901 203.404 231.901 203.404C231.901 203.404 232.778 208.203 229.838 210.721C227.684 212.483 225.386 214.063 222.969 215.443L223.399 211.791Z" fill="#29B65C"/>
<path id="Vector_27" d="M222.56 206.82C222.56 206.82 222.214 204.821 218.933 202.508C215.653 200.195 213.59 198.907 213.59 198.907C213.59 198.907 212.988 203.744 216.069 206.096C218.322 207.732 220.708 209.179 223.2 210.42L222.56 206.82Z" fill="#29B65C"/>
<path id="Vector_28" d="M222.559 217.686C222.559 217.686 222.726 215.661 220.138 212.592C217.549 209.523 215.871 207.755 215.871 207.755C215.871 207.755 214.057 212.278 216.447 215.334C218.199 217.486 220.128 219.488 222.213 221.318L222.559 217.686Z" fill="#29B65C"/>
<path id="Vector_29" d="M206.651 157.8C207.152 159.856 207.766 161.884 208.49 163.874C210.585 169.396 213.987 172.606 215.986 177.571C217.984 182.537 215.986 189.744 217.959 196.222C219.932 202.699 223.2 205.941 223.2 210.49C223.2 215.039 221.431 227.692 221.431 227.692" stroke="#263238" stroke-width="0.606517" stroke-linecap="round" stroke-linejoin="round"/>
<path id="Vector_30" d="M208.016 162.964L204.601 161.177" stroke="#263238" stroke-width="0.606517" stroke-linecap="round" stroke-linejoin="round"/>
<path id="Vector_31" d="M207.413 160.324L208.285 157.864" stroke="#263238" stroke-width="0.606517" stroke-linecap="round" stroke-linejoin="round"/>
<path id="Vector_32" d="M215.774 177.366C215.774 177.366 212.923 175.912 210.008 174.464" stroke="#263238" stroke-width="0.606517" stroke-linecap="round" stroke-linejoin="round"/>
<path id="Vector_33" d="M213.833 173.644C214.674 171.004 215.779 168.456 217.133 166.039" stroke="#263238" stroke-width="0.606517" stroke-linecap="round" stroke-linejoin="round"/>
<path id="Vector_34" d="M217.466 194.62C215.565 192.214 213.324 190.097 210.815 188.335" stroke="#263238" stroke-width="0.606517" stroke-linecap="round" stroke-linejoin="round"/>
<path id="Vector_35" d="M218.44 197.336C218.896 195.403 219.511 193.511 220.279 191.679C221.374 189.251 221.56 188.931 221.56 188.931" stroke="#263238" stroke-width="0.606517" stroke-linecap="round" stroke-linejoin="round"/>
<path id="Vector_36" d="M223.046 213.944C224.157 212.567 225.388 211.291 226.724 210.132C227.573 209.506 228.371 208.812 229.107 208.056" stroke="#263238" stroke-width="0.606517" stroke-linecap="round" stroke-linejoin="round"/>
<path id="Vector_37" d="M223.2 210.491C222.285 209.014 221.259 207.609 220.131 206.288C219.02 205.076 217.812 203.957 216.518 202.943" stroke="#263238" stroke-width="0.606517" stroke-linecap="round" stroke-linejoin="round"/>
<path id="Vector_38" d="M222.213 221.318C222.099 219.777 221.574 218.295 220.695 217.025C219.292 215.174 217.639 212.714 216.966 211.746" stroke="#263238" stroke-width="0.606517" stroke-linecap="round" stroke-linejoin="round"/>
</g>
<g id="freepik--Bookshelf--inject-2">
<path id="Vector_39" d="M25.0162 130.366L22.21 122.351L25.0162 125.753L22.8122 113.727L26.2207 122.351L27.4252 105.507L29.4305 121.543L31.6345 118.34V122.351L34.2421 116.937L32.839 126.355L35.2415 124.753L31.4359 129.962L25.0162 130.366Z" fill="#29B65C"/>
<path id="Vector_40" d="M33.8387 128.36H23.4147L25.2919 149.407H31.9614L33.8387 128.36Z" fill="#263238" stroke="#263238" stroke-width="0.606517" stroke-linecap="round" stroke-linejoin="round"/>
<path id="Vector_41" d="M53.3924 149.169H17.8792V224.386H53.3924V149.169Z" fill="white" stroke="#263238" stroke-width="0.606517" stroke-linecap="round" stroke-linejoin="round"/>
<path id="Vector_42" d="M55.3336 149.169H35.6324V224.386H55.3336V149.169Z" fill="white" stroke="#263238" stroke-width="0.606517" stroke-linecap="round" stroke-linejoin="round"/>
<path id="Vector_43" d="M53.1168 149.169H35.6324V224.386H53.1168V149.169Z" fill="#263238" stroke="#263238" stroke-width="0.606517" stroke-linecap="round" stroke-linejoin="round"/>
<path id="Vector_44" d="M51.1499 206.896H35.6324V222.298H51.1499V206.896Z" fill="#29B65C" stroke="#263238" stroke-width="0.606517" stroke-linecap="round" stroke-linejoin="round"/>
<path id="Vector_45" d="M51.1499 207.729H35.6324V209.702H51.1499V207.729Z" fill="white" stroke="#263238" stroke-width="0.606517" stroke-linecap="round" stroke-linejoin="round"/>
<path id="Vector_46" d="M51.1499 219.068H35.6324V221.042H51.1499V219.068Z" fill="white" stroke="#263238" stroke-width="0.606517" stroke-linecap="round" stroke-linejoin="round"/>
<path id="Vector_47" d="M38.5734 207.216V226.693" stroke="#263238" stroke-width="0.606517" stroke-linecap="round" stroke-linejoin="round"/>
<path id="Vector_48" d="M43.9872 207.216V226.693" stroke="#263238" stroke-width="0.606517" stroke-linecap="round" stroke-linejoin="round"/>
<path id="Vector_49" d="M48.7408 207.216V226.693" stroke="#263238" stroke-width="0.606517" stroke-linecap="round" stroke-linejoin="round"/>
<path id="Vector_50" d="M51.1499 151.963H35.6324V174.611H51.1499V151.963Z" fill="#29B65C" stroke="#263238" stroke-width="0.606517" stroke-linecap="round" stroke-linejoin="round"/>
<path id="Vector_51" d="M51.1499 152.911H35.6324V155.154H51.1499V152.911Z" fill="white" stroke="#263238" stroke-width="0.606517" stroke-linecap="round" stroke-linejoin="round"/>
<path id="Vector_52" d="M51.1499 167.429H35.6324V169.671H51.1499V167.429Z" fill="white" stroke="#263238" stroke-width="0.606517" stroke-linecap="round" stroke-linejoin="round"/>
<path id="Vector_53" d="M38.5734 152.322V174.458" stroke="#263238" stroke-width="0.606517" stroke-linecap="round" stroke-linejoin="round"/>
<path id="Vector_54" d="M43.9872 152.322V174.458" stroke="#263238" stroke-width="0.606517" stroke-linecap="round" stroke-linejoin="round"/>
<path id="Vector_55" d="M48.7408 152.322V174.458" stroke="#263238" stroke-width="0.606517" stroke-linecap="round" stroke-linejoin="round"/>
<path id="Vector_56" d="M51.1499 179.256H35.6324V201.904H51.1499V179.256Z" fill="#29B65C" stroke="#263238" stroke-width="0.606517" stroke-linecap="round" stroke-linejoin="round"/>
<path id="Vector_57" d="M51.1499 180.204H35.6324V182.447H51.1499V180.204Z" fill="white" stroke="#263238" stroke-width="0.606517" stroke-linecap="round" stroke-linejoin="round"/>
<path id="Vector_58" d="M51.1499 194.722H35.6324V196.964H51.1499V194.722Z" fill="white" stroke="#263238" stroke-width="0.606517" stroke-linecap="round" stroke-linejoin="round"/>
<path id="Vector_59" d="M38.5734 179.621V201.75" stroke="#263238" stroke-width="0.606517" stroke-linecap="round" stroke-linejoin="round"/>
<path id="Vector_60" d="M43.9872 179.621V201.75" stroke="#263238" stroke-width="0.606517" stroke-linecap="round" stroke-linejoin="round"/>
<path id="Vector_61" d="M48.7408 179.621V201.75" stroke="#263238" stroke-width="0.606517" stroke-linecap="round" stroke-linejoin="round"/>
<path id="Vector_62" d="M53.3859 174.298H35.6324V176.873H53.3859V174.298Z" fill="white" stroke="#263238" stroke-width="0.606517" stroke-linecap="round" stroke-linejoin="round"/>
<path id="Vector_63" d="M53.3859 201.764H35.6324V204.339H53.3859V201.764Z" fill="white" stroke="#263238" stroke-width="0.606517" stroke-linecap="round" stroke-linejoin="round"/>
<path id="Vector_64" d="M53.3861 149.169V224.379" stroke="#263238" stroke-width="0.606517" stroke-linecap="round" stroke-linejoin="round"/>
<path id="Vector_65" d="M33.1273 149.17V224.38H35.6324V151.963H53.0783V149.138L33.1273 149.17Z" fill="white" stroke="#263238" stroke-width="0.606517" stroke-linecap="round" stroke-linejoin="round"/>
<path id="Vector_66" d="M35.6324 151.962V149.169" stroke="#263238" stroke-width="0.606517" stroke-linecap="round" stroke-linejoin="round"/>
</g>
<g id="freepik--Character--inject-2">
<path id="Vector_67" d="M53.2513 114.618C51.3869 111.024 50.6052 108.448 50.6052 107.852C50.6052 106.674 53.168 105.969 53.168 105.969C57.1659 103.855 75.97 106.911 84.4335 108.32C89.1713 109.146 93.9642 109.617 98.7721 109.73C98.7721 109.73 99.9446 108.794 101.335 107.615C102.725 106.437 109.324 98.6842 111.913 98.0051C114.501 97.326 116.846 98.9469 116.846 98.9469C116.846 98.9469 121.081 101.51 120.37 102.003C119.659 102.496 109.324 111.402 106.736 113.048C104.147 114.695 98.7465 113.99 94.0438 114.932C89.9947 115.739 73.5931 116.739 69.8323 117.046C67.0078 117.716 64.0435 117.469 61.3688 116.342" fill="white"/>
<g id="Clip path group">
<mask id="mask0_84_20154" style="mask-type:luminance" maskUnits="userSpaceOnUse" x="50" y="97" width="71" height="21">
<g id="freepik--clip-path--inject-2">
<path id="Vector_68" d="M53.2513 114.618C51.3869 111.024 50.6052 108.448 50.6052 107.852C50.6052 106.674 53.168 105.969 53.168 105.969C57.1659 103.855 75.97 106.911 84.4335 108.32C89.1713 109.146 93.9642 109.617 98.7721 109.73C98.7721 109.73 99.9446 108.794 101.335 107.615C102.725 106.437 109.324 98.6842 111.913 98.0051C114.501 97.326 116.846 98.9469 116.846 98.9469C116.846 98.9469 121.081 101.51 120.37 102.003C119.659 102.496 109.324 111.402 106.736 113.048C104.147 114.695 98.7465 113.99 94.0438 114.932C89.9947 115.739 73.5931 116.739 69.8323 117.046C67.0078 117.716 64.0435 117.469 61.3688 116.342" fill="white"/>
</g>
</mask>
<g mask="url(#mask0_84_20154)">
<g id="Group">
<path id="Vector_69" d="M116.891 98.9209C116.891 98.9209 114.54 97.2744 111.958 97.9791C109.376 98.6839 102.79 106.443 101.38 107.589C99.9706 108.736 98.8174 109.704 98.8174 109.704C94.0095 109.591 89.2166 109.12 84.4788 108.294C76.0153 106.885 57.2112 103.809 53.2133 105.943C53.2133 105.943 50.6505 106.648 50.6505 107.826C50.7395 108.486 50.9095 109.131 51.1567 109.749L51.509 109.877C51.509 109.877 56.2053 109.383 66.341 109.627C76.4766 109.87 99.9194 111.261 101.425 111.805C102.066 112.049 106.608 111.024 111.644 109.242C115.488 106.109 120.005 102.195 120.46 101.919C121.126 101.503 116.891 98.9209 116.891 98.9209Z" fill="#29B65C"/>
<path id="Vector_70" opacity="0.5" d="M116.891 98.9209C116.891 98.9209 114.54 97.2744 111.958 97.9791C109.376 98.6839 102.79 106.443 101.38 107.589C99.9706 108.736 98.8174 109.704 98.8174 109.704C94.0095 109.591 89.2166 109.12 84.4788 108.294C76.0153 106.885 57.2112 103.809 53.2133 105.943C53.2133 105.943 50.6505 106.648 50.6505 107.826C50.7395 108.486 50.9095 109.131 51.1567 109.749L51.509 109.877C51.509 109.877 56.2053 109.383 66.341 109.627C76.4766 109.87 99.9194 111.261 101.425 111.805C102.066 112.049 106.608 111.024 111.644 109.242C115.488 106.109 120.005 102.195 120.46 101.919C121.126 101.503 116.891 98.9209 116.891 98.9209Z" fill="white"/>
</g>
</g>
</g>
<path id="Vector_71" d="M53.2513 114.618C51.3869 111.024 50.6052 108.448 50.6052 107.852C50.6052 106.674 53.168 105.969 53.168 105.969C57.1659 103.855 75.97 106.911 84.4335 108.32C89.1713 109.146 93.9642 109.617 98.7721 109.73C98.7721 109.73 99.9446 108.794 101.335 107.615C102.725 106.437 109.324 98.6842 111.913 98.0051C114.501 97.326 116.846 98.9469 116.846 98.9469C116.846 98.9469 121.081 101.51 120.37 102.003C119.659 102.496 109.324 111.402 106.736 113.048C104.147 114.695 98.7465 113.99 94.0438 114.932C89.9947 115.739 73.5931 116.739 69.8323 117.046C67.0078 117.716 64.0435 117.469 61.3688 116.342" stroke="#263238" stroke-width="0.606517" stroke-linecap="round" stroke-linejoin="round"/>
<path id="Vector_72" d="M146.093 135.517C146.519 134.71 147.156 134.035 147.938 133.564C148.719 133.093 149.615 132.845 150.527 132.846H193.261C193.261 132.846 196.349 132.846 195.426 138.714C194.504 144.583 181.831 180.417 178.768 191.251C175.706 202.085 175.059 224.919 175.059 224.919H123.804C123.804 224.919 127.866 170.313 146.093 135.517Z" fill="white"/>
<g id="Clip path group_2">
<mask id="mask1_84_20154" style="mask-type:luminance" maskUnits="userSpaceOnUse" x="123" y="132" width="73" height="93">
<g id="freepik--clip-path-2--inject-2">
<path id="Vector_73" d="M146.093 135.517C146.519 134.71 147.156 134.035 147.938 133.564C148.719 133.093 149.615 132.845 150.527 132.846H193.261C193.261 132.846 196.349 132.846 195.426 138.714C194.504 144.583 181.831 180.417 178.768 191.251C175.706 202.085 175.059 224.919 175.059 224.919H123.804C123.804 224.919 127.866 170.313 146.093 135.517Z" fill="white"/>
</g>
</mask>
<g mask="url(#mask1_84_20154)">
<g id="Group_2">
<path id="Vector_74" opacity="0.16" d="M165.339 132.846H150.527C149.614 132.845 148.719 133.093 147.938 133.564C147.156 134.035 146.518 134.71 146.093 135.517C127.866 170.313 123.759 224.9 123.759 224.9H146.747L152.417 203.366L176.058 208.242C176.225 206.435 176.417 204.596 176.641 202.783L176.122 197.017C176.122 197.017 171.279 191.923 169.754 190.649C168.229 189.374 169.241 187.073 168.985 177.136C168.729 167.199 159.81 160.056 156.491 153.937C153.173 147.819 158.279 143.994 162.866 137.875C164.5 135.665 165.166 134.037 165.339 132.846Z" fill="black"/>
</g>
</g>
</g>
<path id="Vector_75" d="M146.093 135.517C146.519 134.71 147.156 134.035 147.938 133.564C148.719 133.093 149.615 132.845 150.527 132.846H193.261C193.261 132.846 196.349 132.846 195.426 138.714C194.504 144.583 181.831 180.417 178.768 191.251C175.706 202.085 175.059 224.919 175.059 224.919H123.804C123.804 224.919 127.866 170.313 146.093 135.517Z" stroke="#263238" stroke-width="0.606517" stroke-linecap="round" stroke-linejoin="round"/>
<path id="Vector_76" d="M185.848 143.039C181.53 153.117 172.394 193.012 170.907 224.899H175.033C175.033 224.899 175.674 202.04 178.743 191.231C181.812 180.423 194.497 144.583 195.401 138.695C196.304 132.807 193.235 132.826 193.235 132.826C193.235 132.826 189.314 134.96 185.848 143.039Z" fill="#263238" stroke="#263238" stroke-width="0.606517" stroke-linecap="round" stroke-linejoin="round"/>
<path id="Vector_77" d="M110.778 122.895C110.778 122.895 103.961 118.898 101.379 111.85C98.7975 104.802 121.593 93.5135 131.492 92.8088C141.39 92.104 144.184 94.686 150.072 104.796C155.96 114.906 159.945 128.771 156.889 135.587C153.833 142.404 148.662 144.051 152.404 149.683C156.145 155.314 166.742 171.306 166.038 178.827C165.333 186.349 158.048 192.923 147.458 193.64C136.867 194.358 122.772 187.996 111.022 177.623C99.2716 167.25 102.321 151.995 106.537 147.062C110.753 142.129 117.115 140.245 117.582 135.312C118.05 130.379 110.778 122.895 110.778 122.895Z" fill="#263238" stroke="#263238" stroke-width="0.606517" stroke-linecap="round" stroke-linejoin="round"/>
<path id="Vector_78" d="M139.834 111.741C143.454 118.481 147.983 127.509 149.399 132.961C151.872 142.507 139.148 148.517 142.678 153.11" stroke="white" stroke-width="0.606517" stroke-linecap="round" stroke-linejoin="round"/>
<path id="Vector_79" d="M134.901 102.912C134.901 102.912 136.31 105.315 138.258 108.851" stroke="white" stroke-width="0.606517" stroke-linecap="round" stroke-linejoin="round"/>
<path id="Vector_80" d="M153.891 119.871C154.308 121.134 154.579 122.441 154.698 123.766" stroke="white" stroke-width="0.606517" stroke-linecap="round" stroke-linejoin="round"/>
<path id="Vector_81" d="M137.348 99.4082C137.348 99.4082 148.483 107.635 152.929 117.482" stroke="white" stroke-width="0.606517" stroke-linecap="round" stroke-linejoin="round"/>
<path id="Vector_82" d="M121.895 105.578C113.944 107.808 102.507 111.428 103.436 113.516" stroke="white" stroke-width="0.606517" stroke-linecap="round" stroke-linejoin="round"/>
<path id="Vector_83" d="M129.243 103.617C129.243 103.617 127.545 104.04 125.015 104.719" stroke="white" stroke-width="0.606517" stroke-linecap="round" stroke-linejoin="round"/>
<path id="Vector_84" d="M119.409 99.4655C123.963 98.0302 128.733 97.4014 133.504 97.6076" stroke="white" stroke-width="0.606517" stroke-linecap="round" stroke-linejoin="round"/>
<path id="Vector_85" d="M116.167 100.791C116.887 100.416 117.632 100.091 118.397 99.8174" stroke="white" stroke-width="0.606517" stroke-linecap="round" stroke-linejoin="round"/>
<path id="Vector_86" d="M53.2515 114.617C52.1724 112.641 51.313 110.553 50.6887 108.39C51.31 110.554 52.1695 112.643 53.2515 114.617ZM50.6183 108.025C50.6183 108.063 50.6183 108.108 50.6183 108.166C50.6311 108.108 50.6247 108.063 50.6183 108.025ZM53.2515 114.611C55.6476 119.149 58.6288 123.354 62.1186 127.117C70.5821 136.285 95.0307 160.266 97.3564 161.913C99.6821 163.559 99.0029 168.256 97.3564 172.958C95.7098 177.661 89.5977 184.491 89.8347 191.999C90.0718 199.508 92.3975 211.041 92.186 213.392C91.9746 215.743 86.0931 223.739 86.0931 223.739H146.741C146.741 223.739 139.18 214.129 139.18 210.842C139.18 207.555 149.56 165.443 150.027 162.387C150.495 159.331 148.618 157.216 144.857 156.979C141.096 156.742 126.757 153.686 126.053 151.335C125.348 148.984 129.814 140.052 129.814 140.052L115.718 140.757C115.718 140.757 115.014 146.869 114.072 148.048C113.13 149.227 111.721 146.869 108.427 145.229C105.134 143.589 98.8171 142.173 96.4402 140.29C94.0632 138.406 71.5239 117.225 71.5239 117.225" fill="white"/>
<g id="Clip path group_3">
<mask id="mask2_84_20154" style="mask-type:luminance" maskUnits="userSpaceOnUse" x="50" y="108" width="101" height="116">
<g id="freepik--clip-path-3--inject-2">
<path id="Vector_87" d="M53.2515 114.617C52.1724 112.641 51.313 110.553 50.6887 108.39C51.31 110.554 52.1695 112.643 53.2515 114.617ZM50.6183 108.025C50.6183 108.063 50.6183 108.108 50.6183 108.166C50.6311 108.108 50.6247 108.063 50.6183 108.025ZM53.2515 114.611C55.6476 119.149 58.6288 123.354 62.1186 127.117C70.5821 136.285 95.0307 160.266 97.3564 161.913C99.6821 163.559 99.0029 168.256 97.3564 172.958C95.7098 177.661 89.5977 184.491 89.8347 191.999C90.0718 199.508 92.3975 211.041 92.186 213.392C91.9746 215.743 86.0931 223.739 86.0931 223.739H146.741C146.741 223.739 139.18 214.129 139.18 210.842C139.18 207.555 149.56 165.443 150.027 162.387C150.495 159.331 148.618 157.216 144.857 156.979C141.096 156.742 126.757 153.686 126.053 151.335C125.348 148.984 129.814 140.052 129.814 140.052L115.718 140.757C115.718 140.757 115.014 146.869 114.072 148.048C113.13 149.227 111.721 146.869 108.427 145.229C105.134 143.589 98.8171 142.173 96.4402 140.29C94.0632 138.406 71.5239 117.225 71.5239 117.225" fill="white"/>
</g>
</mask>
<g mask="url(#mask2_84_20154)">
<g id="Group_3">
<path id="Vector_88" d="M100.041 142.103C101.213 144.153 102.386 146.004 102.386 146.004C102.386 146.004 106.339 148.228 107.325 148.228C108.312 148.228 114.245 151.431 114.245 151.431C114.245 151.431 119.191 150.194 117.448 145.991C116.898 144.916 116.204 143.92 115.385 143.032C115.091 144.896 114.616 147.337 114.059 148.035C113.117 149.208 111.708 146.856 108.415 145.216C106.281 144.153 102.828 143.179 100.041 142.103Z" fill="#29B65C"/>
<path id="Vector_89" d="M87.9702 132.588C80.7113 125.868 71.5238 117.25 71.5238 117.25L66.1805 116.481L65.5398 116.84C65.5398 116.84 80.6216 130.186 83.8314 131.672C85.13 132.269 86.5411 132.581 87.9702 132.588Z" fill="#29B65C"/>
<path id="Vector_90" d="M95.5753 139.546L94.9987 139.033C95.2934 139.52 95.46 139.828 95.46 139.828L95.5753 139.546Z" fill="#29B65C"/>
<g id="Group_4" opacity="0.5">
<path id="Vector_91" d="M100.041 142.103C101.213 144.153 102.386 146.004 102.386 146.004C102.386 146.004 106.339 148.228 107.325 148.228C108.312 148.228 114.245 151.431 114.245 151.431C114.245 151.431 119.191 150.194 117.448 145.991C116.898 144.916 116.204 143.92 115.385 143.032C115.091 144.896 114.616 147.337 114.059 148.035C113.117 149.208 111.708 146.856 108.415 145.216C106.281 144.153 102.828 143.179 100.041 142.103Z" fill="white"/>
<path id="Vector_92" d="M87.9702 132.588C80.7113 125.868 71.5238 117.25 71.5238 117.25L66.1805 116.481L65.5398 116.84C65.5398 116.84 80.6216 130.186 83.8314 131.672C85.13 132.269 86.5411 132.581 87.9702 132.588Z" fill="white"/>
<path id="Vector_93" d="M95.5753 139.546L94.9987 139.033C95.2934 139.52 95.46 139.828 95.46 139.828L95.5753 139.546Z" fill="white"/>
</g>
</g>
</g>
</g>
<path id="Vector_94" d="M50.6055 107.852C50.6025 107.896 50.6025 107.941 50.6055 107.986M50.6887 108.39C51.313 110.553 52.1724 112.641 53.2515 114.617C52.1695 112.643 51.31 110.554 50.6887 108.39ZM50.6887 108.39C50.6711 108.329 50.6582 108.267 50.6503 108.204M53.2515 114.611C55.6476 119.149 58.6288 123.354 62.1186 127.117C70.5821 136.285 95.0307 160.266 97.3564 161.913C99.6821 163.559 99.0029 168.256 97.3564 172.958C95.7098 177.661 89.5977 184.491 89.8347 191.999C90.0718 199.508 92.3975 211.041 92.186 213.392C91.9746 215.743 86.0931 223.739 86.0931 223.739H146.741C146.741 223.739 139.18 214.129 139.18 210.842C139.18 207.555 149.56 165.443 150.027 162.387C150.495 159.331 148.618 157.216 144.857 156.979C141.096 156.742 126.757 153.686 126.053 151.335C125.348 148.984 129.814 140.052 129.814 140.052L115.718 140.757C115.718 140.757 115.014 146.869 114.072 148.048C113.13 149.227 111.721 146.869 108.427 145.229C105.134 143.589 98.8171 142.173 96.4402 140.29C94.0632 138.406 71.5239 117.225 71.5239 117.225M50.6183 108.025C50.6183 108.063 50.6183 108.108 50.6183 108.166C50.6311 108.108 50.6247 108.063 50.6183 108.025Z" stroke="#263238" stroke-width="0.606517" stroke-linecap="round" stroke-linejoin="round"/>
<path id="Vector_95" d="M71.5235 117.251C71.5235 117.251 64.0147 117.392 59.8246 113.938" stroke="#263238" stroke-width="0.606517" stroke-linecap="round" stroke-linejoin="round"/>
<path id="Vector_96" d="M126.059 151.335C125.354 148.99 129.82 140.053 129.82 140.053L115.724 140.757C115.724 140.757 115.02 146.87 114.078 148.049C113.136 149.227 111.727 146.87 108.433 145.229C108.184 145.101 107.908 144.98 107.626 144.858L106.774 158.255C106.774 158.255 108.011 171.229 122.836 168.762C128.839 167.762 135.246 162.406 140.775 156.384C135.086 155.34 126.597 153.136 126.059 151.335Z" fill="white"/>
<g id="Clip path group_4">
<mask id="mask3_84_20154" style="mask-type:luminance" maskUnits="userSpaceOnUse" x="106" y="140" width="35" height="30">
<g id="freepik--clip-path-4--inject-2">
<path id="Vector_97" d="M126.059 151.335C125.354 148.99 129.82 140.053 129.82 140.053L115.724 140.757C115.724 140.757 115.02 146.87 114.078 148.049C113.136 149.227 111.727 146.87 108.433 145.229C108.184 145.101 107.908 144.98 107.626 144.858L106.774 158.255C106.774 158.255 108.011 171.229 122.836 168.762C128.839 167.762 135.246 162.406 140.775 156.384C135.086 155.34 126.597 153.136 126.059 151.335Z" fill="white"/>
</g>
</mask>
<g mask="url(#mask3_84_20154)">
<g id="Group_5">
<path id="Vector_98" d="M125.662 141.828C125.662 141.828 124.81 146.607 124.124 151.893C123.439 157.179 122.932 161.112 122.932 161.112L126.059 151.335L129.583 140.976C129.583 140.976 126.174 140.976 125.662 141.828Z" fill="#29B65C"/>
<path id="Vector_99" opacity="0.5" d="M125.662 141.828C125.662 141.828 124.81 146.607 124.124 151.893C123.439 157.179 122.932 161.112 122.932 161.112L126.059 151.335L129.583 140.976C129.583 140.976 126.174 140.976 125.662 141.828Z" fill="white"/>
</g>
</g>
</g>
<path id="Vector_100" d="M126.059 151.335C125.354 148.99 129.82 140.053 129.82 140.053L115.724 140.757C115.724 140.757 115.02 146.87 114.078 148.049C113.136 149.227 111.727 146.87 108.433 145.229C108.184 145.101 107.908 144.98 107.626 144.858L106.774 158.255C106.774 158.255 108.011 171.229 122.836 168.762C128.839 167.762 135.246 162.406 140.775 156.384C135.086 155.34 126.597 153.136 126.059 151.335Z" stroke="#263238" stroke-width="0.606517" stroke-linecap="round" stroke-linejoin="round"/>
<path id="Vector_101" d="M114.072 148.049C113.13 149.221 111.721 146.87 108.427 145.23C106.352 144.186 103.046 143.237 100.31 142.212C99.5347 140.374 98.5096 137.977 97.8497 136.529C96.6772 133.967 94.7936 135.588 94.7936 135.588C93.8109 134.47 93.0167 133.2 92.4423 131.827C91.2698 129.264 89.3862 129.475 86.8042 129.008C84.2223 128.54 78.8085 123.6 78.8085 123.6C78.8085 123.6 76.2777 121.678 75.2334 120.724C74.0161 123.12 71.101 127.336 64.7966 129.969C74.849 140.47 95.2421 160.421 97.382 161.92C99.7333 163.56 99.0285 168.263 97.382 172.965C95.7354 177.668 89.6233 184.498 89.8603 192.007C90.0974 199.515 92.4231 211.048 92.2116 213.399C92.0002 215.494 87.3104 222.061 86.2917 223.471L88.6814 223.74H101.124C101.053 217.435 101.06 191.705 105.371 181.454C110.311 169.672 114.072 148.049 114.072 148.049Z" fill="#29B65C"/>
<g id="Clip path group_5">
<mask id="mask4_84_20154" style="mask-type:luminance" maskUnits="userSpaceOnUse" x="64" y="120" width="51" height="104">
<g id="freepik--clip-path-5--inject-2">
<path id="Vector_102" d="M114.072 148.049C113.13 149.221 111.721 146.87 108.427 145.23C106.352 144.186 103.046 143.237 100.31 142.212C99.5347 140.374 98.5096 137.977 97.8497 136.529C96.6772 133.967 94.7936 135.588 94.7936 135.588C93.8109 134.47 93.0167 133.2 92.4423 131.827C91.2698 129.264 89.3862 129.475 86.8042 129.008C84.2223 128.54 78.8085 123.6 78.8085 123.6C78.8085 123.6 76.2777 121.678 75.2334 120.724C74.0161 123.12 71.101 127.336 64.7966 129.969C74.849 140.47 95.2421 160.421 97.382 161.92C99.7333 163.56 99.0285 168.263 97.382 172.965C95.7354 177.668 89.6233 184.498 89.8603 192.007C90.0974 199.515 92.4231 211.048 92.2116 213.399C92.0002 215.494 87.3104 222.061 86.2917 223.471L88.6814 223.74H101.124C101.053 217.435 101.06 191.705 105.371 181.454C110.311 169.672 114.072 148.049 114.072 148.049Z" fill="white"/>
</g>
</mask>
<g mask="url(#mask4_84_20154)">
<g id="Group_6">
<path id="Vector_103" opacity="0.16" d="M108.427 145.23C106.351 144.186 103.045 143.237 100.31 142.212C99.5345 140.374 98.5094 137.977 97.8494 136.529C96.677 133.967 94.7934 135.588 94.7934 135.588C93.8107 134.47 93.0165 133.2 92.442 131.827C91.2696 129.264 89.386 129.475 86.804 129.008C84.222 128.54 78.8082 123.6 78.8082 123.6C78.8082 123.6 76.2775 121.678 75.2332 120.724C74.7121 121.741 74.0919 122.705 73.3816 123.6C77.5845 127.156 82.2231 130.923 83.844 131.673C87.0475 133.153 87.7971 131.916 90.2509 133.403C92.7047 134.889 95.4405 139.81 95.4405 139.81C95.4405 139.81 96.9269 135.85 98.1634 138.573C99.3999 141.296 102.366 145.986 102.366 145.986C102.366 145.986 106.319 148.209 107.306 148.209C108.081 148.209 111.881 150.182 113.495 151.035C113.854 149.157 114.052 148.03 114.052 148.03C113.13 149.221 111.72 146.87 108.427 145.23Z" fill="black"/>
</g>
</g>
</g>
<path id="Vector_104" d="M114.072 148.049C113.13 149.221 111.721 146.87 108.427 145.23C106.352 144.186 103.046 143.237 100.31 142.212C99.5347 140.374 98.5096 137.977 97.8497 136.529C96.6772 133.967 94.7936 135.588 94.7936 135.588C93.8109 134.47 93.0167 133.2 92.4423 131.827C91.2698 129.264 89.3862 129.475 86.8042 129.008C84.2223 128.54 78.8085 123.6 78.8085 123.6C78.8085 123.6 76.2777 121.678 75.2334 120.724C74.0161 123.12 71.101 127.336 64.7966 129.969C74.849 140.47 95.2421 160.421 97.382 161.92C99.7333 163.56 99.0285 168.263 97.382 172.965C95.7354 177.668 89.6233 184.498 89.8603 192.007C90.0974 199.515 92.4231 211.048 92.2116 213.399C92.0002 215.494 87.3104 222.061 86.2917 223.471L88.6814 223.74H101.124C101.053 217.435 101.06 191.705 105.371 181.454C110.311 169.672 114.072 148.049 114.072 148.049Z" stroke="#263238" stroke-width="0.606517" stroke-linecap="round" stroke-linejoin="round"/>
<path id="Vector_105" d="M114.239 147.229C114.239 147.229 111.317 146.332 109.517 147.908C107.717 149.484 105.032 157.569 103.45 166.34C102.474 171.446 103.147 176.73 105.372 181.429C105.372 181.429 109.068 171.735 110.19 167.013C111.311 162.291 114.239 147.229 114.239 147.229Z" fill="#29B65C"/>
<g id="Clip path group_6">
<mask id="mask5_84_20154" style="mask-type:luminance" maskUnits="userSpaceOnUse" x="103" y="146" width="12" height="36">
<g id="freepik--clip-path-6--inject-2">
<path id="Vector_106" d="M114.239 147.229C114.239 147.229 111.317 146.332 109.517 147.908C107.717 149.484 105.032 157.569 103.45 166.34C102.474 171.446 103.147 176.73 105.372 181.429C105.372 181.429 109.068 171.735 110.19 167.013C111.311 162.291 114.239 147.229 114.239 147.229Z" fill="white"/>
</g>
</mask>
<g mask="url(#mask5_84_20154)">
<g id="Group_7">
<path id="Vector_107" opacity="0.16" d="M108.632 148.658C108.632 148.658 110.746 148.145 111.618 148.44C112.352 148.754 113.037 149.171 113.655 149.676L114.238 147.229C113.364 146.782 112.372 146.618 111.4 146.761C109.946 147.056 108.632 148.658 108.632 148.658Z" fill="black"/>
</g>
</g>
</g>
<path id="Vector_108" d="M114.239 147.229C114.239 147.229 111.317 146.332 109.517 147.908C107.717 149.484 105.032 157.569 103.45 166.34C102.474 171.446 103.147 176.73 105.372 181.429C105.372 181.429 109.068 171.735 110.19 167.013C111.311 162.291 114.239 147.229 114.239 147.229Z" stroke="#263238" stroke-width="0.606517" stroke-linecap="round" stroke-linejoin="round"/>
<path id="Vector_109" d="M94.5628 147.998L98.3236 163.278L89.8601 144" stroke="#263238" stroke-width="0.606517" stroke-linecap="round" stroke-linejoin="round"/>
<path id="Vector_110" d="M119.338 223.74H146.747C146.747 223.74 139.187 214.13 139.187 210.843C139.187 207.556 149.566 165.444 150.033 162.388C150.501 159.332 148.624 157.217 144.863 156.98C141.102 156.743 126.764 153.687 126.059 151.336C126.059 151.336 120.652 170.377 118.774 183.306C117.16 194.397 118.832 217.41 119.338 223.74Z" fill="#29B65C"/>
<g id="Clip path group_7">
<mask id="mask6_84_20154" style="mask-type:luminance" maskUnits="userSpaceOnUse" x="118" y="151" width="33" height="73">
<g id="freepik--clip-path-7--inject-2">
<path id="Vector_111" d="M119.338 223.74H146.747C146.747 223.74 139.187 214.13 139.187 210.843C139.187 207.556 149.566 165.444 150.033 162.388C150.501 159.332 148.624 157.217 144.863 156.98C141.102 156.743 126.764 153.687 126.059 151.336C126.059 151.336 120.652 170.377 118.774 183.306C117.16 194.397 118.832 217.41 119.338 223.74Z" fill="white"/>
</g>
</mask>
<g mask="url(#mask6_84_20154)">
<g id="Group_8">
<path id="Vector_112" opacity="0.16" d="M144.863 156.98C141.781 156.788 131.601 154.699 127.635 152.662L129.076 155.994C131.688 157.379 134.497 158.356 137.405 158.89C142.178 159.742 146.618 159.575 149.521 163.842L149.662 164.054C149.841 163.233 149.963 162.657 150.001 162.388C150.507 159.332 148.624 157.217 144.863 156.98Z" fill="black"/>
</g>
</g>
</g>
<path id="Vector_113" d="M119.338 223.74H146.747C146.747 223.74 139.187 214.13 139.187 210.843C139.187 207.556 149.566 165.444 150.033 162.388C150.501 159.332 148.624 157.217 144.863 156.98C141.102 156.743 126.764 153.687 126.059 151.336C126.059 151.336 120.652 170.377 118.774 183.306C117.16 194.397 118.832 217.41 119.338 223.74Z" stroke="#263238" stroke-width="0.606517" stroke-linecap="round" stroke-linejoin="round"/>
<path id="Vector_114" d="M126.059 151.336C126.059 151.336 118.806 174.401 118.774 183.306C118.774 183.306 129.076 170.832 130.422 162.067C131.767 153.303 126.059 151.336 126.059 151.336Z" fill="#29B65C"/>
<g id="Clip path group_8">
<mask id="mask7_84_20154" style="mask-type:luminance" maskUnits="userSpaceOnUse" x="118" y="151" width="13" height="33">
<g id="freepik--clip-path-8--inject-2">
<path id="Vector_115" d="M126.059 151.336C126.059 151.336 118.806 174.401 118.774 183.306C118.774 183.306 129.076 170.832 130.422 162.067C131.767 153.303 126.059 151.336 126.059 151.336Z" fill="white"/>
</g>
</mask>
<g mask="url(#mask7_84_20154)">
<g id="Group_9">
<path id="Vector_116" opacity="0.16" d="M124.81 154.283C125.9 154.247 126.982 154.476 127.963 154.952C128.944 155.427 129.795 156.134 130.441 157.012C130.441 157.012 129.019 152.829 126.059 151.336L124.81 154.283Z" fill="black"/>
</g>
</g>
</g>
<path id="Vector_117" d="M126.059 151.336C126.059 151.336 118.806 174.401 118.774 183.306C118.774 183.306 129.076 170.832 130.422 162.067C131.767 153.303 126.059 151.336 126.059 151.336Z" stroke="#263238" stroke-width="0.606517" stroke-linecap="round" stroke-linejoin="round"/>
<path id="Vector_118" d="M203.486 219.402C203.486 219.402 208.797 219.62 212.276 220.12C214.596 220.434 216.932 220.62 219.273 220.677C219.273 220.677 217.351 216.795 215.3 215.699C213.25 214.604 209.534 212.643 206.42 213.079C203.307 213.514 198.854 216.654 199.225 217.653C199.597 218.653 201.256 219.101 203.486 219.402Z" fill="white"/>
<g id="Clip path group_9">
<mask id="mask8_84_20154" style="mask-type:luminance" maskUnits="userSpaceOnUse" x="199" y="213" width="21" height="8">
<g id="freepik--clip-path-9--inject-2">
<path id="Vector_119" d="M203.486 219.402C203.486 219.402 208.797 219.62 212.276 220.12C214.596 220.434 216.932 220.62 219.273 220.677C219.273 220.677 217.351 216.795 215.3 215.699C213.25 214.604 209.534 212.643 206.42 213.079C203.307 213.514 198.854 216.654 199.225 217.653C199.597 218.653 201.256 219.101 203.486 219.402Z" fill="white"/>
</g>
</mask>
<g mask="url(#mask8_84_20154)">
<g id="Group_10">
<path id="Vector_120" d="M203.486 219.402C203.486 219.402 208.797 219.62 212.276 220.12C214.596 220.434 216.932 220.62 219.273 220.677C219.273 220.677 217.351 216.795 215.3 215.699C213.25 214.604 209.534 212.643 206.42 213.079C203.307 213.514 198.854 216.654 199.225 217.653C199.597 218.653 201.256 219.101 203.486 219.402Z" fill="#29B65C"/>
<path id="Vector_121" opacity="0.5" d="M203.486 219.402C203.486 219.402 208.797 219.62 212.276 220.12C214.596 220.434 216.932 220.62 219.273 220.677C219.273 220.677 217.351 216.795 215.3 215.699C213.25 214.604 209.534 212.643 206.42 213.079C203.307 213.514 198.854 216.654 199.225 217.653C199.597 218.653 201.256 219.101 203.486 219.402Z" fill="white"/>
</g>
</g>
</g>
<path id="Vector_122" d="M203.486 219.402C203.486 219.402 208.797 219.62 212.276 220.12C214.596 220.434 216.932 220.62 219.273 220.677C219.273 220.677 217.35 216.795 215.3 215.699C213.25 214.604 209.534 212.643 206.42 213.079C203.307 213.514 198.854 216.654 199.225 217.653C199.597 218.653 201.256 219.101 203.486 219.402Z" stroke="#263238" stroke-width="0.606517" stroke-linecap="round" stroke-linejoin="round"/>
<path id="Vector_123" d="M212.308 217.813C212.308 217.813 216.518 215.628 217.568 215.661C218.619 215.693 225.603 220.414 225.257 221.17C225.022 221.521 224.682 221.789 224.287 221.936C223.891 222.083 223.46 222.102 223.053 221.99C222.277 221.625 217.575 219.626 217.575 219.626L214.5 220.35L212.308 217.813Z" fill="white"/>
<g id="Clip path group_10">
<mask id="mask9_84_20154" style="mask-type:luminance" maskUnits="userSpaceOnUse" x="212" y="215" width="14" height="8">
<g id="freepik--clip-path-10--inject-2">
<path id="Vector_124" d="M212.308 217.813C212.308 217.813 216.518 215.628 217.568 215.661C218.619 215.693 225.603 220.414 225.257 221.17C225.022 221.521 224.682 221.789 224.287 221.936C223.891 222.083 223.46 222.102 223.053 221.99C222.277 221.625 217.575 219.626 217.575 219.626L214.5 220.35L212.308 217.813Z" fill="white"/>
</g>
</mask>
<g mask="url(#mask9_84_20154)">
<g id="Group_11">
<path id="Vector_125" d="M212.308 217.813C212.308 217.813 216.518 215.628 217.568 215.661C218.619 215.693 225.603 220.414 225.257 221.17C224.911 221.926 223.258 222.541 223.053 221.99C222.848 221.439 217.575 219.626 217.575 219.626L214.5 220.35L212.308 217.813Z" fill="#29B65C"/>
<path id="Vector_126" opacity="0.5" d="M212.308 217.813C212.308 217.813 216.518 215.628 217.568 215.661C218.619 215.693 225.603 220.414 225.257 221.17C224.911 221.926 223.258 222.541 223.053 221.99C222.848 221.439 217.575 219.626 217.575 219.626L214.5 220.35L212.308 217.813Z" fill="white"/>
</g>
</g>
</g>
<path id="Vector_127" d="M212.308 217.813C212.308 217.813 216.518 215.628 217.568 215.661C218.619 215.693 225.603 220.414 225.257 221.17C225.022 221.521 224.682 221.789 224.287 221.936C223.891 222.083 223.46 222.102 223.053 221.99C222.277 221.625 217.575 219.626 217.575 219.626L214.5 220.35L212.308 217.813Z" stroke="#263238" stroke-width="0.606517" stroke-linecap="round" stroke-linejoin="round"/>
<path id="Vector_128" d="M209.303 214.219C209.303 214.219 214.916 214.039 216.031 214.603C217.145 215.167 222.181 223.803 221.425 224.431C220.669 225.059 218.581 224.873 218.645 224.175C218.709 223.476 214.006 218.851 214.006 218.851L210.348 218.05L209.303 214.219Z" fill="white"/>
<g id="Clip path group_11">
<mask id="mask10_84_20154" style="mask-type:luminance" maskUnits="userSpaceOnUse" x="209" y="214" width="13" height="11">
<g id="freepik--clip-path-11--inject-2">
<path id="Vector_129" d="M209.303 214.219C209.303 214.219 214.916 214.039 216.031 214.603C217.145 215.167 222.181 223.803 221.425 224.431C220.669 225.059 218.581 224.873 218.645 224.175C218.709 223.476 214.006 218.851 214.006 218.851L210.348 218.05L209.303 214.219Z" fill="white"/>
</g>
</mask>
<g mask="url(#mask10_84_20154)">
<g id="Group_12">
<path id="Vector_130" d="M209.303 214.219C209.303 214.219 214.916 214.039 216.031 214.603C217.145 215.167 222.181 223.803 221.425 224.431C220.669 225.059 218.581 224.873 218.645 224.175C218.709 223.476 214.006 218.851 214.006 218.851L210.348 218.05L209.303 214.219Z" fill="#29B65C"/>
<path id="Vector_131" opacity="0.5" d="M209.303 214.219C209.303 214.219 214.916 214.039 216.031 214.603C217.145 215.167 222.181 223.803 221.425 224.431C220.669 225.059 218.581 224.873 218.645 224.175C218.709 223.476 214.006 218.851 214.006 218.851L210.348 218.05L209.303 214.219Z" fill="white"/>
</g>
</g>
</g>
<path id="Vector_132" d="M209.303 214.219C209.303 214.219 214.916 214.039 216.031 214.603C217.145 215.167 222.181 223.803 221.425 224.431C220.669 225.059 218.581 224.873 218.645 224.175C218.709 223.476 214.006 218.851 214.006 218.851L210.348 218.05L209.303 214.219Z" stroke="#263238" stroke-width="0.606517" stroke-linecap="round" stroke-linejoin="round"/>
<path id="Vector_133" d="M205.979 213.06C205.979 213.06 211.661 212.874 212.789 213.451C213.917 214.027 219.016 222.76 218.248 223.4C217.479 224.041 215.377 223.843 215.441 223.138C215.506 222.433 210.745 217.75 210.745 217.75L207.042 216.936L205.979 213.06Z" fill="white"/>
<g id="Clip path group_12">
<mask id="mask11_84_20154" style="mask-type:luminance" maskUnits="userSpaceOnUse" x="205" y="213" width="14" height="11">
<g id="freepik--clip-path-12--inject-2">
<path id="Vector_134" d="M205.979 213.06C205.979 213.06 211.661 212.874 212.789 213.451C213.917 214.027 219.016 222.76 218.248 223.4C217.479 224.041 215.377 223.843 215.441 223.138C215.506 222.433 210.745 217.75 210.745 217.75L207.042 216.936L205.979 213.06Z" fill="white"/>
</g>
</mask>
<g mask="url(#mask11_84_20154)">
<g id="Group_13">
<path id="Vector_135" d="M205.979 213.06C205.979 213.06 211.661 212.874 212.789 213.451C213.917 214.027 219.016 222.76 218.248 223.4C217.479 224.041 215.377 223.843 215.441 223.138C215.506 222.433 210.745 217.75 210.745 217.75L207.042 216.936L205.979 213.06Z" fill="#29B65C"/>
<path id="Vector_136" opacity="0.5" d="M205.979 213.06C205.979 213.06 211.661 212.874 212.789 213.451C213.917 214.027 219.016 222.76 218.248 223.4C217.479 224.041 215.377 223.843 215.441 223.138C215.506 222.433 210.745 217.75 210.745 217.75L207.042 216.936L205.979 213.06Z" fill="white"/>
</g>
</g>
</g>
<path id="Vector_137" d="M205.979 213.06C205.979 213.06 211.661 212.874 212.789 213.451C213.917 214.027 219.016 222.76 218.248 223.4C217.479 224.041 215.377 223.843 215.441 223.138C215.506 222.433 210.745 217.75 210.745 217.75L207.042 216.936L205.979 213.06Z" stroke="#263238" stroke-width="0.606517" stroke-linecap="round" stroke-linejoin="round"/>
<path id="Vector_138" d="M141.365 180.5C145.479 186.836 153.737 202.892 156.146 204.699C159.907 207.518 185.048 214.36 187.469 216.231C189.891 218.102 189.725 219.979 192.018 220.665C194.312 221.35 202.91 223.317 206.19 223.625C209.471 223.932 208.003 221.901 208.003 221.901L202.41 218.057L207.286 216.852C207.286 216.852 212.174 222.734 213.09 223.054C214.007 223.375 215.621 223.054 215.519 222.33C215.339 221.171 210.124 211.682 208.272 211.279C206.421 210.875 195.183 212.432 195.183 212.432C195.183 212.432 171.612 196.536 171.189 195.972C171.189 195.972 169.78 191.975 168.627 190.328C167.473 188.681 166.743 189.156 166.743 189.156C166.743 189.156 167.217 187.035 166.512 186.33L162.752 182.569L162.617 182.749C161.976 181.467 161.336 180.007 160.631 178.341C158.664 173.709 151.7 160.709 150.527 158.832C149.65 157.429 142.294 156.423 138.566 156" fill="#29B65C"/>
<g id="Clip path group_13">
<mask id="mask12_84_20154" style="mask-type:luminance" maskUnits="userSpaceOnUse" x="138" y="156" width="78" height="68">
<g id="freepik--clip-path-13--inject-2">
<path id="Vector_139" d="M141.365 180.5C145.479 186.836 153.737 202.892 156.146 204.699C159.907 207.518 185.048 214.36 187.469 216.231C189.891 218.102 189.725 219.979 192.018 220.665C194.312 221.35 202.91 223.317 206.19 223.625C209.471 223.932 208.003 221.901 208.003 221.901L202.41 218.057L207.286 216.852C207.286 216.852 212.174 222.734 213.09 223.054C214.007 223.375 215.621 223.054 215.519 222.33C215.339 221.171 210.124 211.682 208.272 211.279C206.421 210.875 195.183 212.432 195.183 212.432C195.183 212.432 171.612 196.536 171.189 195.972C171.189 195.972 169.78 191.975 168.627 190.328C167.473 188.681 166.743 189.156 166.743 189.156C166.743 189.156 167.217 187.035 166.512 186.33L162.752 182.569L162.617 182.749C161.976 181.467 161.336 180.007 160.631 178.341C158.664 173.709 151.7 160.709 150.527 158.832C149.65 157.429 142.294 156.423 138.566 156" fill="white"/>
</g>
</mask>
<g mask="url(#mask12_84_20154)">
<g id="Group_14">
<path id="Vector_140" opacity="0.16" d="M157.741 180.904C160.817 183.633 159.792 183.633 159.106 186.03C158.42 188.426 159.619 185.178 162.521 185.351C165.423 185.524 164.571 189.272 164.225 189.957C163.879 190.643 167.813 191.495 167.127 193.026C166.442 194.557 162.521 196.78 160.304 199.004C158.087 201.227 166.102 195.416 168.832 195.249C169.665 195.191 170.35 195.3 170.927 195.288C170.322 193.573 169.545 191.925 168.607 190.367C167.429 188.721 166.724 189.195 166.724 189.195C166.724 189.195 167.198 187.074 166.493 186.369L162.732 182.608L162.598 182.788C161.957 181.506 161.316 180.046 160.612 178.38C158.645 173.748 151.68 160.748 150.508 158.871C149.63 157.468 142.275 156.462 138.546 156.039L138.886 159.005L138.969 159.07C138.969 159.07 143.576 159.922 145.113 160.095C146.651 160.268 148.528 161.626 148.355 162.657C148.182 163.689 143.749 168.289 145.113 168.635C146.478 168.981 148.016 165.22 149.553 165.733C151.091 166.245 154.647 178.175 157.741 180.904Z" fill="black"/>
</g>
</g>
</g>
<path id="Vector_141" d="M141.365 180.5C145.479 186.836 153.737 202.892 156.146 204.699C159.907 207.518 185.048 214.36 187.469 216.231C189.891 218.102 189.725 219.979 192.018 220.665C194.312 221.35 202.91 223.317 206.19 223.625C209.471 223.932 208.003 221.901 208.003 221.901L202.41 218.057L207.286 216.852C207.286 216.852 212.174 222.734 213.09 223.054C214.007 223.375 215.621 223.054 215.519 222.33C215.339 221.171 210.124 211.682 208.272 211.279C206.421 210.875 195.183 212.432 195.183 212.432C195.183 212.432 171.612 196.536 171.189 195.972C171.189 195.972 169.78 191.975 168.627 190.328C167.473 188.681 166.743 189.156 166.743 189.156C166.743 189.156 167.217 187.035 166.512 186.33L162.752 182.569L162.617 182.749C161.976 181.467 161.336 180.007 160.631 178.341C158.664 173.709 151.7 160.709 150.527 158.832C149.65 157.429 142.294 156.423 138.566 156" stroke="#263238" stroke-width="0.606517" stroke-linecap="round" stroke-linejoin="round"/>
<path id="Vector_142" d="M141.429 171.806C141.256 172.382 141.109 172.959 140.993 173.548" stroke="#263238" stroke-width="0.606517" stroke-linecap="round" stroke-linejoin="round"/>
<path id="Vector_143" d="M147.657 161.201C145.643 163.496 143.945 166.049 142.608 168.793" stroke="#263238" stroke-width="0.606517" stroke-linecap="round" stroke-linejoin="round"/>
<path id="Vector_144" d="M157.068 197.58C158.798 195.017 161.553 191.769 164.59 190.84" stroke="#263238" stroke-width="0.606517" stroke-linecap="round" stroke-linejoin="round"/>
<path id="Vector_145" d="M155.152 200.733C155.152 200.733 155.46 200.13 156.011 199.221" stroke="#263238" stroke-width="0.606517" stroke-linecap="round" stroke-linejoin="round"/>
<path id="Vector_146" d="M155.152 196.684C155.152 196.684 158.298 188.816 161.444 186.791C164.59 184.767 162.789 188.816 162.789 188.816" stroke="#263238" stroke-width="0.606517" stroke-linecap="round" stroke-linejoin="round"/>
<path id="Vector_147" d="M187.469 216.237C189.897 218.114 189.724 219.985 192.018 220.67C194.311 221.356 202.909 223.323 206.19 223.63C209.47 223.938 208.003 221.907 208.003 221.907L202.41 218.063L207.285 216.858C207.285 216.858 212.174 222.74 213.09 223.06C214.006 223.381 215.749 223.496 215.518 222.336C215.07 220.094 210.123 211.688 208.272 211.284C206.42 210.881 195.183 212.438 195.183 212.438C195.183 212.438 173.713 197.702 171.362 196.106C162.245 196.984 157.907 201.757 156.081 204.621L156.145 204.672C159.906 207.517 185.047 214.36 187.469 216.237Z" fill="white"/>
<g id="Clip path group_14">
<mask id="mask13_84_20154" style="mask-type:luminance" maskUnits="userSpaceOnUse" x="156" y="196" width="60" height="28">
<g id="freepik--clip-path-14--inject-2">
<path id="Vector_148" d="M187.469 216.237C189.897 218.114 189.724 219.985 192.018 220.67C194.311 221.356 202.909 223.323 206.19 223.63C209.47 223.938 208.003 221.907 208.003 221.907L202.41 218.063L207.285 216.858C207.285 216.858 212.174 222.74 213.09 223.06C214.006 223.381 215.749 223.496 215.518 222.336C215.07 220.094 210.123 211.688 208.272 211.284C206.42 210.881 195.183 212.438 195.183 212.438C195.183 212.438 173.713 197.702 171.362 196.106C162.245 196.984 157.907 201.757 156.081 204.621L156.145 204.672C159.906 207.517 185.047 214.36 187.469 216.237Z" fill="white"/>
</g>
</mask>
<g mask="url(#mask13_84_20154)">
<g id="Group_15">
<path id="Vector_149" d="M215.512 222.362C214.346 219.511 210.117 211.713 208.266 211.31C206.414 210.906 195.176 212.463 195.176 212.463C195.176 212.463 173.707 197.727 171.356 196.132C168.963 196.34 166.615 196.908 164.391 197.817C167.781 199.739 190.371 212.553 193.222 213.123C196.246 213.764 206.337 212.104 208.112 213.296C209.24 214.052 212.597 219.376 214.865 223.156C215.512 223.06 215.749 222.938 215.512 222.362Z" fill="#29B65C"/>
<path id="Vector_150" opacity="0.5" d="M215.512 222.362C213.692 218.28 210.117 211.713 208.266 211.31C206.414 210.906 195.177 212.463 195.177 212.463C195.177 212.463 173.707 197.727 171.356 196.132C168.963 196.34 166.615 196.908 164.391 197.817C167.781 199.739 190.371 212.553 193.222 213.123C196.246 213.764 206.337 212.104 208.112 213.296C209.24 214.052 212.597 219.376 214.865 223.156C215.512 223.06 215.768 222.932 215.512 222.362Z" fill="white"/>
</g>
</g>
</g>
<path id="Vector_151" d="M187.469 216.237C189.897 218.114 189.724 219.985 192.018 220.67C194.311 221.356 202.909 223.323 206.19 223.63C209.47 223.938 208.003 221.907 208.003 221.907L202.41 218.063L207.285 216.858C207.285 216.858 212.174 222.74 213.09 223.06C214.006 223.381 215.749 223.496 215.518 222.336C215.07 220.094 210.123 211.688 208.272 211.284C206.42 210.881 195.183 212.438 195.183 212.438C195.183 212.438 173.713 197.702 171.362 196.106C162.245 196.984 157.907 201.757 156.081 204.621L156.145 204.672C159.906 207.517 185.047 214.36 187.469 216.237Z" stroke="#263238" stroke-width="0.606517" stroke-linecap="round" stroke-linejoin="round"/>
<path id="Vector_152" d="M130.845 104.36L111.547 112.414C111.313 115.805 110.474 119.127 109.068 122.223C106.787 127.047 108.12 136.177 110.311 141.104C112.502 146.031 122.157 144.102 125.687 143.487C128.082 143.032 130.427 142.347 132.69 141.443C133.721 141.84 134.835 141.969 135.929 141.816C137.023 141.664 138.06 141.236 138.943 140.572C138.943 140.572 128.615 111.581 130.845 104.36Z" fill="white"/>
<g id="Clip path group_15">
<mask id="mask14_84_20154" style="mask-type:luminance" maskUnits="userSpaceOnUse" x="107" y="104" width="32" height="41">
<g id="freepik--clip-path-15--inject-2">
<path id="Vector_153" d="M130.845 104.36L111.547 112.414C111.313 115.805 110.474 119.127 109.068 122.223C106.787 127.047 108.12 136.177 110.311 141.104C112.502 146.031 122.157 144.102 125.687 143.487C128.082 143.032 130.427 142.347 132.69 141.443C133.721 141.84 134.835 141.969 135.929 141.816C137.023 141.664 138.06 141.236 138.943 140.572C138.943 140.572 128.615 111.581 130.845 104.36Z" fill="white"/>
</g>
</mask>
<g mask="url(#mask14_84_20154)">
<g id="Group_16">
<path id="Vector_154" d="M130.845 104.36L111.547 112.414C111.313 115.805 110.474 119.127 109.068 122.223C106.787 127.047 108.12 136.177 110.311 141.104C110.678 141.896 111.268 142.564 112.009 143.026V142.654C112.009 142.654 108.427 133.781 109.106 128.662C109.785 123.543 112.694 120.973 113.034 117.738C113.373 114.502 113.2 112.965 119.69 110.575C126.181 108.185 128.903 105.968 129.583 108.352C130.262 110.735 132.997 126.445 134.875 130.199C136.752 133.954 136.579 137.888 133.683 139.585C130.756 141.342 127.62 142.724 124.348 143.699L125.713 143.461C128.107 143.006 130.452 142.322 132.716 141.418C133.746 141.815 134.861 141.943 135.955 141.791C137.049 141.638 138.086 141.21 138.969 140.546C138.969 140.546 128.615 111.581 130.845 104.36Z" fill="#29B65C"/>
<path id="Vector_155" opacity="0.5" d="M130.845 104.36L111.547 112.414C111.313 115.805 110.474 119.127 109.068 122.223C106.787 127.047 108.12 136.177 110.311 141.104C110.678 141.896 111.268 142.564 112.009 143.026V142.654C112.009 142.654 108.427 133.781 109.106 128.662C109.785 123.543 112.694 120.973 113.034 117.738C113.373 114.502 113.2 112.965 119.69 110.575C126.181 108.185 128.903 105.968 129.583 108.352C130.262 110.735 132.997 126.445 134.875 130.199C136.752 133.954 136.579 137.888 133.683 139.585C130.756 141.342 127.62 142.724 124.348 143.699L125.713 143.461C128.107 143.006 130.452 142.322 132.716 141.418C133.746 141.815 134.861 141.943 135.955 141.791C137.049 141.638 138.086 141.21 138.969 140.546C138.969 140.546 128.615 111.581 130.845 104.36Z" fill="white"/>
</g>
</g>
</g>
<path id="Vector_156" d="M130.845 104.36L111.547 112.414C111.313 115.805 110.474 119.127 109.068 122.223C106.787 127.047 108.12 136.177 110.311 141.104C112.502 146.031 122.157 144.102 125.687 143.487C128.082 143.032 130.427 142.347 132.69 141.443C133.721 141.84 134.835 141.969 135.929 141.816C137.023 141.664 138.06 141.236 138.943 140.572C138.943 140.572 128.615 111.581 130.845 104.36Z" stroke="#263238" stroke-width="0.606517" stroke-linecap="round" stroke-linejoin="round"/>
<path id="Vector_157" d="M121.094 116.988C121.146 118.123 121.005 119.258 120.677 120.345C120.165 121.627 115.328 126.663 115.475 127.207C115.622 127.752 116.058 129.501 116.917 129.667" stroke="#263238" stroke-width="0.606517" stroke-linecap="round" stroke-linejoin="round"/>
<path id="Vector_158" d="M126.456 121.493C127.129 120.147 129.339 121.461 129.307 124.491" stroke="#263238" stroke-width="0.606517" stroke-linecap="round" stroke-linejoin="round"/>
<path id="Vector_159" d="M115.5 117.533C115.5 117.533 117.384 116.706 119.069 119.756" stroke="#263238" stroke-width="0.606517" stroke-linecap="round" stroke-linejoin="round"/>
<path id="Vector_160" d="M123.778 125.933C125.955 126.042 128.025 126.91 129.628 128.386" stroke="#263238" stroke-width="0.303259" stroke-linecap="round" stroke-linejoin="round"/>
<path id="Vector_161" d="M113.226 121.928C114.351 122.078 115.451 122.382 116.493 122.831" stroke="#263238" stroke-width="0.303259" stroke-linecap="round" stroke-linejoin="round"/>
<path id="Vector_162" d="M120.883 114.144C120.385 113.881 119.833 113.737 119.271 113.724C118.708 113.71 118.15 113.828 117.641 114.067C115.917 114.893 114.86 115.803 114.975 114.746C115.091 113.689 117.115 112.523 117.724 112.369C118.333 112.215 121.055 111.792 120.883 114.144Z" fill="#263238"/>
<path id="Vector_163" d="M125.713 111.754C127.509 113.207 128.936 115.065 129.877 117.174C131.159 120.378 132.171 116.88 131.159 114.785C130.147 112.69 127.219 110.46 125.713 111.754Z" fill="#263238"/>
<path id="Vector_164" d="M139.225 146.05C139.225 147.543 138.379 148.754 137.341 148.754C136.304 148.754 135.464 147.543 135.464 146.05C135.464 144.557 136.304 140.758 137.341 140.758C138.379 140.758 139.225 144.557 139.225 146.05Z" fill="#29B65C" stroke="#263238" stroke-width="0.606517" stroke-linecap="round" stroke-linejoin="round"/>
<path id="Vector_165" d="M126.623 120.909C126.549 121.105 126.491 121.306 126.45 121.511C126.264 122.46 126.078 124.439 126.45 124.523C126.821 124.606 127.731 122.754 127.891 121.806C127.927 121.62 127.949 121.432 127.955 121.242C127.518 121.105 127.073 120.994 126.623 120.909Z" fill="#263238"/>
<path id="Vector_166" d="M115.693 117.347C115.636 117.514 115.591 117.686 115.558 117.859C115.366 118.808 115.372 120.89 115.776 120.967C116.18 121.044 116.84 119.096 117.025 118.148C117.072 117.918 117.098 117.684 117.102 117.449C116.644 117.323 116.165 117.288 115.693 117.347Z" fill="#263238"/>
<path id="Vector_167" d="M126.456 121.524L127.097 120.332C128.113 120.53 129.033 121.062 129.711 121.844" stroke="#263238" stroke-width="0.454888" stroke-linecap="round" stroke-linejoin="round"/>
<path id="Vector_168" d="M115.693 117.347L116.334 116.598C116.334 116.598 116.609 116.463 118.121 117.149" stroke="#263238" stroke-width="0.454888" stroke-linecap="round" stroke-linejoin="round"/>
<path id="Vector_169" d="M113.264 134.722C113.264 134.722 114.341 132.742 115.782 132.742C117.224 132.742 118.3 135.978 118.3 135.978" stroke="#263238" stroke-width="0.606517" stroke-linecap="round" stroke-linejoin="round"/>
</g>
<g id="freepik--Mug--inject-2">
<path id="Vector_170" d="M66.8722 220.101C65.4791 220.032 64.1108 219.706 62.8359 219.14C62.6582 219.074 62.4956 218.973 62.3582 218.842C62.2209 218.712 62.1115 218.555 62.0368 218.38C61.962 218.206 61.9235 218.019 61.9236 217.829C61.9237 217.64 61.9623 217.452 62.0372 217.278C62.1121 217.104 62.2216 216.947 62.3591 216.817C62.4966 216.686 62.6592 216.585 62.837 216.519C63.0148 216.454 63.2041 216.425 63.3934 216.435C63.5826 216.445 63.7679 216.493 63.9379 216.577C65.2193 217.122 66.8786 217.461 67.3207 217.269C68.1344 216.359 69.3837 210.862 67.7692 208.21C67.404 207.62 67.0644 207.511 66.8402 207.486C65.924 207.358 64.5658 208.299 64.0852 208.767C63.9515 208.893 63.7942 208.992 63.6223 209.057C63.4504 209.123 63.2673 209.154 63.0835 209.148C62.8996 209.143 62.7186 209.101 62.5508 209.026C62.383 208.951 62.2317 208.843 62.1055 208.709C61.9793 208.576 61.8807 208.418 61.8153 208.246C61.7499 208.075 61.719 207.891 61.7243 207.708C61.7297 207.524 61.7712 207.343 61.8465 207.175C61.9218 207.007 62.0294 206.856 62.1632 206.73C62.4131 206.486 64.7259 204.404 67.1926 204.737C67.8044 204.827 68.3873 205.056 68.8962 205.407C69.4051 205.758 69.8263 206.222 70.1269 206.762C72.5039 210.638 70.8765 218.012 69.0506 219.473C68.416 219.922 67.6484 220.143 66.8722 220.101Z" fill="white"/>
<g id="Clip path group_16">
<mask id="mask15_84_20154" style="mask-type:luminance" maskUnits="userSpaceOnUse" x="61" y="204" width="11" height="17">
<g id="freepik--clip-path-16--inject-2">
<path id="Vector_171" d="M66.8722 220.101C65.4791 220.032 64.1108 219.706 62.8359 219.14C62.6582 219.074 62.4956 218.973 62.3582 218.842C62.2209 218.712 62.1115 218.555 62.0368 218.38C61.962 218.206 61.9235 218.019 61.9236 217.829C61.9237 217.64 61.9623 217.452 62.0372 217.278C62.1121 217.104 62.2216 216.947 62.3591 216.817C62.4966 216.686 62.6592 216.585 62.837 216.519C63.0148 216.454 63.2041 216.425 63.3934 216.435C63.5826 216.445 63.7679 216.493 63.9379 216.577C65.2193 217.122 66.8786 217.461 67.3207 217.269C68.1344 216.359 69.3837 210.862 67.7692 208.21C67.404 207.62 67.0644 207.511 66.8402 207.486C65.924 207.358 64.5658 208.299 64.0852 208.767C63.9515 208.893 63.7942 208.992 63.6223 209.057C63.4504 209.123 63.2673 209.154 63.0835 209.148C62.8996 209.143 62.7186 209.101 62.5508 209.026C62.383 208.951 62.2317 208.843 62.1055 208.709C61.9793 208.576 61.8807 208.418 61.8153 208.246C61.7499 208.075 61.719 207.891 61.7243 207.708C61.7297 207.524 61.7712 207.343 61.8465 207.175C61.9218 207.007 62.0294 206.856 62.1632 206.73C62.4131 206.486 64.7259 204.404 67.1926 204.737C67.8044 204.827 68.3873 205.056 68.8962 205.407C69.4051 205.758 69.8263 206.222 70.1269 206.762C72.5039 210.638 70.8765 218.012 69.0506 219.473C68.416 219.922 67.6484 220.143 66.8722 220.101Z" fill="white"/>
</g>
</mask>
<g mask="url(#mask15_84_20154)">
<g id="Group_17">
<path id="Vector_172" d="M68.7496 207.787C68.5816 207.389 68.3185 207.039 67.9834 206.766C67.6483 206.493 67.2514 206.307 66.8275 206.224C65.2258 205.968 63.7202 207.576 63.5536 207.755C63.4005 207.94 63.3059 208.166 63.2819 208.404C63.2579 208.643 63.3057 208.883 63.4191 209.094C63.6711 209.044 63.9041 208.924 64.0918 208.748C64.5723 208.3 65.9306 207.358 66.8468 207.467C67.071 207.467 67.4106 207.601 67.7758 208.191C69.3903 210.818 68.141 216.34 67.3273 217.25C66.8852 217.442 65.2322 217.103 63.9445 216.558C63.786 216.492 63.6166 216.455 63.4447 216.449C63.4564 216.625 63.5117 216.795 63.6057 216.944C63.6997 217.092 63.8294 217.215 63.9829 217.301C64.793 217.734 65.6867 217.988 66.6033 218.045C67.1263 218.07 67.6387 217.89 68.032 217.545C69.2365 216.436 70.3001 210.766 68.7496 207.787Z" fill="#29B65C"/>
<path id="Vector_173" opacity="0.5" d="M68.7496 207.787C68.5816 207.389 68.3185 207.039 67.9834 206.766C67.6483 206.493 67.2514 206.307 66.8275 206.224C65.2258 205.968 63.7202 207.576 63.5536 207.755C63.4005 207.94 63.3059 208.166 63.2819 208.404C63.2579 208.643 63.3057 208.883 63.4191 209.094C63.6711 209.044 63.9041 208.924 64.0918 208.748C64.5723 208.3 65.9306 207.358 66.8468 207.467C67.071 207.467 67.4106 207.601 67.7758 208.191C69.3903 210.818 68.141 216.34 67.3273 217.25C66.8852 217.442 65.2322 217.103 63.9445 216.558C63.786 216.492 63.6166 216.455 63.4447 216.449C63.4564 216.625 63.5117 216.795 63.6057 216.944C63.6997 217.092 63.8294 217.215 63.9829 217.301C64.793 217.734 65.6867 217.988 66.6033 218.045C67.1263 218.07 67.6387 217.89 68.032 217.545C69.2365 216.436 70.3001 210.766 68.7496 207.787Z" fill="white"/>
</g>
</g>
</g>
<path id="Vector_174" d="M66.8722 220.101C65.4791 220.032 64.1108 219.706 62.8359 219.14C62.6582 219.074 62.4956 218.973 62.3582 218.842C62.2209 218.712 62.1115 218.555 62.0368 218.38C61.962 218.206 61.9235 218.019 61.9236 217.829C61.9237 217.64 61.9623 217.452 62.0372 217.278C62.1121 217.104 62.2216 216.947 62.3591 216.817C62.4966 216.686 62.6592 216.585 62.837 216.519C63.0148 216.454 63.2041 216.425 63.3934 216.435C63.5826 216.445 63.7679 216.493 63.9379 216.577C65.2193 217.122 66.8786 217.461 67.3207 217.269C68.1344 216.359 69.3837 210.862 67.7692 208.21C67.404 207.62 67.0644 207.511 66.8402 207.486C65.924 207.358 64.5658 208.299 64.0852 208.767C63.9515 208.893 63.7942 208.992 63.6223 209.057C63.4504 209.123 63.2673 209.154 63.0835 209.148C62.8996 209.143 62.7186 209.101 62.5508 209.026C62.383 208.951 62.2317 208.843 62.1055 208.709C61.9793 208.576 61.8807 208.418 61.8153 208.246C61.7499 208.075 61.719 207.891 61.7243 207.708C61.7297 207.524 61.7712 207.343 61.8465 207.175C61.9218 207.007 62.0294 206.856 62.1632 206.73C62.4131 206.486 64.7259 204.404 67.1926 204.737C67.8044 204.827 68.3873 205.056 68.8962 205.407C69.4051 205.758 69.8263 206.222 70.1269 206.762C72.5039 210.638 70.8765 218.012 69.0506 219.473C68.416 219.922 67.6484 220.143 66.8722 220.101Z" stroke="#263238" stroke-width="0.606517" stroke-linecap="round" stroke-linejoin="round"/>
<path id="Vector_175" d="M64.4249 203.571H49.0164V224.022H64.4249V203.571Z" fill="white"/>
<g id="Clip path group_17">
<mask id="mask16_84_20154" style="mask-type:luminance" maskUnits="userSpaceOnUse" x="49" y="203" width="16" height="22">
<g id="freepik--clip-path-17--inject-2">
<path id="Vector_176" d="M64.4249 203.571H49.0164V224.022H64.4249V203.571Z" fill="white"/>
</g>
</mask>
<g mask="url(#mask16_84_20154)">
<g id="Group_18">
<path id="Vector_177" d="M55.3271 203.571H49.0164V224.022H55.3271V203.571Z" fill="#29B65C"/>
<path id="Vector_178" opacity="0.5" d="M55.3271 203.571H49.0164V224.022H55.3271V203.571Z" fill="white"/>
</g>
</g>
</g>
<path id="Vector_179" d="M64.4249 203.571H49.0164V224.022H64.4249V203.571Z" stroke="#263238" stroke-width="0.606517" stroke-linecap="round" stroke-linejoin="round"/>
</g>
<g id="freepik--Device--inject-2">
<path id="Vector_180" d="M149.098 223.74H83.274L81.1277 187.554C81.0684 187.203 81.0859 186.843 81.179 186.5C81.2721 186.157 81.4386 185.837 81.667 185.565C81.8954 185.292 82.1802 185.072 82.5019 184.92C82.8236 184.767 83.1745 184.687 83.5303 184.684H148.816C149.174 184.683 149.528 184.761 149.853 184.912C150.178 185.062 150.466 185.282 150.697 185.555C150.928 185.828 151.097 186.149 151.192 186.494C151.286 186.839 151.304 187.201 151.245 187.554L149.098 223.74Z" fill="#263238" stroke="#263238" stroke-width="0.606517" stroke-linecap="round" stroke-linejoin="round"/>
<path id="Vector_181" d="M86.5159 185.549H148.342C148.691 185.545 149.037 185.618 149.355 185.762C149.674 185.906 149.956 186.118 150.184 186.383C150.412 186.648 150.579 186.96 150.673 187.296C150.768 187.632 150.788 187.985 150.732 188.33" stroke="white" stroke-width="0.606517" stroke-linecap="round" stroke-linejoin="round"/>
<path id="Vector_182" d="M81.6085 187.759C81.6601 187.154 81.938 186.59 82.3869 186.18C82.8358 185.77 83.4226 185.545 84.0303 185.549" stroke="white" stroke-width="0.606517" stroke-linecap="round" stroke-linejoin="round"/>
<path id="Vector_183" d="M149.374 220.217H82.9985V223.741H149.374V220.217Z" fill="white" stroke="#263238" stroke-width="0.606517" stroke-linecap="round" stroke-linejoin="round"/>
<path id="Vector_184" d="M115.949 207.172C118.546 207.172 120.652 205.91 120.652 204.353C120.652 202.796 118.546 201.534 115.949 201.534C113.352 201.534 111.246 202.796 111.246 204.353C111.246 205.91 113.352 207.172 115.949 207.172Z" fill="white" stroke="#263238" stroke-width="0.606517" stroke-linecap="round" stroke-linejoin="round"/>
</g>
<g id="freepik--Table--inject-2">
<path id="Vector_185" d="M249.487 223.323H2.27185V229.326H249.487V223.323Z" fill="#263238"/>
</g>
<g id="freepik--pop-up-window--inject-2">
<path id="Vector_186" d="M185.387 0.742188H66.4559C62.4469 0.742188 59.1969 3.99215 59.1969 8.00117V76.2408C59.1969 80.2498 62.4469 83.4998 66.4559 83.4998H185.387C189.396 83.4998 192.646 80.2498 192.646 76.2408V8.00117C192.646 3.99215 189.396 0.742188 185.387 0.742188Z" fill="#29B65C"/>
<path id="Vector_187" d="M129.059 48.3003C139.847 46.5665 147.188 36.4154 145.454 25.6272C143.72 14.839 133.569 7.49899 122.781 9.23278C111.993 10.9666 104.652 21.1176 106.386 31.9058C108.12 42.694 118.271 50.0341 129.059 48.3003Z" fill="#263238"/>
<path id="Vector_188" d="M125.771 32.4243L119.178 40.8878C118.954 41.2401 118.646 41.5311 118.281 41.7347C117.917 41.9382 117.507 42.0479 117.09 42.0538C116.517 42.0617 115.964 41.8429 115.552 41.4452C115.342 41.253 115.177 41.0178 115.066 40.7558C114.956 40.4938 114.903 40.211 114.911 39.9268C114.932 39.2902 115.157 38.677 115.552 38.1777L123.067 28.8813L116.02 19.5785C115.692 19.1419 115.513 18.6122 115.507 18.0665C115.505 17.741 115.571 17.4187 115.7 17.1199C115.829 16.8211 116.019 16.5522 116.257 16.3302C116.48 16.0968 116.749 15.9112 117.046 15.7846C117.343 15.6579 117.663 15.5929 117.987 15.5934C118.4 15.6002 118.806 15.7104 119.166 15.9141C119.527 16.1177 119.83 16.4084 120.05 16.7595L126.418 25.1461L132.825 16.9004C133.054 16.5158 133.374 16.1935 133.758 15.9622C134.141 15.7308 134.575 15.5976 135.022 15.5742C135.3 15.5735 135.575 15.6301 135.829 15.7403C136.084 15.8505 136.313 16.0121 136.502 16.2149C136.704 16.405 136.865 16.6343 136.975 16.8888C137.086 17.1433 137.143 17.4176 137.143 17.6949C137.136 18.1911 136.965 18.6711 136.656 19.0596L129.115 28.7083L136.4 38.3186C136.744 38.7482 136.936 39.2802 136.945 39.8307C136.947 40.149 136.879 40.4639 136.748 40.7538C136.616 41.0436 136.423 41.3014 136.182 41.5093C135.712 41.9613 135.085 42.2139 134.433 42.214C134.017 42.2088 133.609 42.0994 133.246 41.8957C132.884 41.692 132.578 41.4005 132.357 41.048L125.771 32.4243Z" fill="white"/>
<path id="Vector_189" d="M163.616 69.1671H88.201C86.6717 69.1671 85.2051 68.5596 84.1237 67.4782C83.0423 66.3969 82.4348 64.9302 82.4348 63.4009C82.4348 61.8717 83.0423 60.405 84.1237 59.3236C85.2051 58.2423 86.6717 57.6348 88.201 57.6348H163.616C165.146 57.6348 166.612 58.2423 167.694 59.3236C168.775 60.405 169.382 61.8717 169.382 63.4009C169.382 64.9302 168.775 66.3969 167.694 67.4782C166.612 68.5596 165.146 69.1671 163.616 69.1671Z" fill="white"/>
<path id="Vector_190" d="M98.5354 65.2595C98.485 65.2595 98.4353 65.2493 98.389 65.2295C98.3427 65.2096 98.301 65.1806 98.2663 65.1442C98.2284 65.1066 98.1986 65.0616 98.1788 65.012C98.1589 64.9624 98.1495 64.9093 98.151 64.8559C98.1509 64.7657 98.1752 64.6771 98.2214 64.5996L98.7981 63.7026H97.6192C97.5647 63.7054 97.5102 63.6966 97.4594 63.6767C97.4086 63.6568 97.3626 63.6264 97.3245 63.5873C97.2586 63.5106 97.2224 63.4129 97.2224 63.3118C97.2224 63.2107 97.2586 63.113 97.3245 63.0363C97.3626 62.9973 97.4086 62.9668 97.4594 62.9469C97.5102 62.9271 97.5647 62.9182 97.6192 62.921L98.7788 62.953L98.2663 62.1201C98.2149 62.0348 98.1862 61.9378 98.183 61.8382C98.1815 61.7849 98.191 61.7317 98.2108 61.6821C98.2306 61.6326 98.2604 61.5876 98.2983 61.5499C98.3342 61.5133 98.3771 61.4842 98.4244 61.4644C98.4717 61.4446 98.5225 61.4345 98.5738 61.4346C98.6456 61.4335 98.716 61.4536 98.7764 61.4924C98.8368 61.5311 98.8844 61.5868 98.9134 61.6525L99.4772 62.6583L100.015 61.6973C100.049 61.6225 100.103 61.5585 100.171 61.5122C100.239 61.4658 100.318 61.439 100.4 61.4346C100.45 61.4346 100.5 61.4448 100.546 61.4647C100.592 61.4845 100.634 61.5135 100.669 61.5499C100.706 61.5851 100.736 61.6279 100.756 61.6754C100.776 61.7228 100.785 61.774 100.784 61.8254C100.783 61.9164 100.757 62.0053 100.707 62.0817L100.143 62.9851L101.316 62.953C101.37 62.9498 101.425 62.9585 101.476 62.9784C101.527 62.9983 101.573 63.029 101.611 63.0684C101.677 63.145 101.713 63.2428 101.713 63.3439C101.713 63.4449 101.677 63.5427 101.611 63.6194C101.573 63.6587 101.527 63.6894 101.476 63.7093C101.425 63.7293 101.37 63.7379 101.316 63.7347H100.131L100.656 64.5548C100.715 64.6537 100.748 64.7662 100.752 64.8815C100.754 64.9334 100.745 64.9852 100.727 65.0336C100.708 65.0821 100.679 65.1262 100.643 65.1634C100.61 65.1994 100.569 65.2281 100.524 65.2479C100.479 65.2678 100.43 65.2782 100.381 65.2787C100.301 65.2768 100.224 65.2523 100.158 65.208C100.092 65.1637 100.041 65.1016 100.009 65.0289L99.4772 64.0871L98.9454 65.0289C98.9069 65.1031 98.8476 65.1644 98.7748 65.2054C98.702 65.2463 98.6188 65.2652 98.5354 65.2595Z" fill="black"/>
<path id="Vector_191" d="M104.417 65.2593C104.366 65.2593 104.317 65.2491 104.27 65.2293C104.224 65.2095 104.182 65.1804 104.148 65.144C104.11 65.1064 104.08 65.0614 104.06 65.0118C104.04 64.9622 104.031 64.9091 104.032 64.8557C104.032 64.7655 104.057 64.6769 104.103 64.5994L104.679 63.7025H103.501C103.446 63.7053 103.392 63.6964 103.341 63.6765C103.29 63.6566 103.244 63.6262 103.206 63.5871C103.14 63.5104 103.104 63.4127 103.104 63.3116C103.104 63.2106 103.14 63.1128 103.206 63.0361C103.244 62.9971 103.29 62.9666 103.341 62.9467C103.392 62.9269 103.446 62.918 103.501 62.9208L104.66 62.9529L104.116 62.0879C104.064 62.0026 104.036 61.9056 104.032 61.806C104.031 61.7526 104.04 61.6995 104.06 61.6499C104.08 61.6003 104.11 61.5553 104.148 61.5177C104.184 61.4811 104.226 61.452 104.274 61.4322C104.321 61.4124 104.372 61.4023 104.423 61.4024C104.495 61.4013 104.565 61.4214 104.626 61.4602C104.686 61.4989 104.734 61.5546 104.763 61.6202L105.326 62.6261L105.865 61.6651C105.899 61.5903 105.952 61.5263 106.02 61.4799C106.088 61.4336 106.167 61.4068 106.249 61.4024C106.299 61.4024 106.349 61.4126 106.395 61.4324C106.442 61.4523 106.483 61.4813 106.518 61.5177C106.556 61.5529 106.585 61.5957 106.605 61.6431C106.625 61.6906 106.635 61.7417 106.633 61.7932C106.633 61.8842 106.606 61.9731 106.557 62.0495L105.993 62.9529L107.165 62.9208C107.22 62.9176 107.274 62.9262 107.325 62.9461C107.376 62.9661 107.422 62.9968 107.46 63.0361C107.526 63.1128 107.562 63.2106 107.562 63.3116C107.562 63.4127 107.526 63.5104 107.46 63.5871C107.422 63.6265 107.376 63.6572 107.325 63.6771C107.274 63.697 107.22 63.7057 107.165 63.7025H105.98L106.505 64.5225C106.565 64.6215 106.598 64.734 106.601 64.8493C106.603 64.9012 106.595 64.9529 106.576 65.0014C106.557 65.0498 106.529 65.094 106.493 65.1312C106.459 65.1671 106.418 65.1959 106.373 65.2157C106.328 65.2355 106.279 65.246 106.23 65.2465C106.15 65.2454 106.073 65.2211 106.007 65.1768C105.941 65.1324 105.889 65.0698 105.858 64.9966L105.326 64.0548L104.795 64.9966C104.763 65.0718 104.711 65.1364 104.644 65.1829C104.577 65.2295 104.498 65.2559 104.417 65.2593Z" fill="black"/>
<path id="Vector_192" d="M110.298 65.2593C110.248 65.2593 110.198 65.2491 110.152 65.2293C110.106 65.2095 110.064 65.1804 110.029 65.144C109.991 65.1064 109.962 65.0614 109.942 65.0118C109.922 64.9622 109.912 64.9091 109.914 64.8557C109.914 64.7655 109.938 64.6769 109.984 64.5994L110.561 63.7025H109.382C109.328 63.7053 109.273 63.6964 109.222 63.6765C109.172 63.6566 109.126 63.6262 109.087 63.5871C109.022 63.5104 108.985 63.4127 108.985 63.3116C108.985 63.2106 109.022 63.1128 109.087 63.0361C109.126 62.9971 109.172 62.9666 109.222 62.9467C109.273 62.9269 109.328 62.918 109.382 62.9208L110.542 62.9529L109.997 62.0879C109.946 62.0026 109.917 61.9056 109.914 61.806C109.912 61.7526 109.922 61.6995 109.942 61.6499C109.962 61.6003 109.991 61.5553 110.029 61.5177C110.065 61.4811 110.108 61.452 110.155 61.4322C110.203 61.4124 110.253 61.4023 110.305 61.4024C110.376 61.4013 110.447 61.4214 110.507 61.4602C110.568 61.4989 110.615 61.5546 110.644 61.6202L111.208 62.6261L111.746 61.6651C111.78 61.5903 111.834 61.5263 111.902 61.4799C111.969 61.4336 112.049 61.4068 112.131 61.4024C112.181 61.4024 112.231 61.4126 112.277 61.4324C112.323 61.4523 112.365 61.4813 112.4 61.5177C112.437 61.5529 112.467 61.5957 112.487 61.6431C112.507 61.6906 112.516 61.7417 112.515 61.7932C112.514 61.8842 112.488 61.9731 112.438 62.0495L111.874 62.9529L113.047 62.9208C113.101 62.9176 113.156 62.9262 113.207 62.9461C113.258 62.9661 113.304 62.9968 113.342 63.0361C113.407 63.1128 113.444 63.2106 113.444 63.3116C113.444 63.4127 113.407 63.5104 113.342 63.5871C113.304 63.6265 113.258 63.6572 113.207 63.6771C113.156 63.697 113.101 63.7057 113.047 63.7025H111.862L112.387 64.5225C112.446 64.6215 112.479 64.734 112.483 64.8493C112.485 64.9012 112.476 64.9529 112.457 65.0014C112.439 65.0498 112.41 65.094 112.374 65.1312C112.34 65.1671 112.3 65.1959 112.255 65.2157C112.209 65.2355 112.161 65.246 112.111 65.2465C112.032 65.2454 111.955 65.2211 111.889 65.1768C111.823 65.1324 111.771 65.0698 111.74 64.9966L111.208 64.0548L110.676 64.9966C110.645 65.0718 110.592 65.1364 110.525 65.1829C110.459 65.2295 110.38 65.2559 110.298 65.2593Z" fill="black"/>
<path id="Vector_193" d="M116.205 65.2593C116.155 65.2593 116.105 65.2491 116.059 65.2293C116.013 65.2095 115.971 65.1804 115.936 65.144C115.898 65.1064 115.868 65.0614 115.849 65.0118C115.829 64.9622 115.819 64.9091 115.821 64.8557C115.821 64.7655 115.845 64.6769 115.891 64.5994L116.468 63.7025H115.289C115.234 63.7053 115.18 63.6964 115.129 63.6765C115.078 63.6566 115.032 63.6262 114.994 63.5871C114.928 63.5104 114.892 63.4127 114.892 63.3116C114.892 63.2106 114.928 63.1128 114.994 63.0361C115.032 62.9971 115.078 62.9666 115.129 62.9467C115.18 62.9269 115.234 62.918 115.289 62.9208L116.449 62.9529L115.904 62.0879C115.853 62.0026 115.824 61.9056 115.821 61.806C115.819 61.7526 115.829 61.6995 115.849 61.6499C115.868 61.6003 115.898 61.5553 115.936 61.5177C115.972 61.4811 116.015 61.452 116.062 61.4322C116.109 61.4124 116.16 61.4023 116.212 61.4024C116.283 61.4013 116.354 61.4214 116.414 61.4602C116.475 61.4989 116.522 61.5546 116.551 61.6202L117.115 62.6261L117.653 61.6651C117.687 61.5903 117.741 61.5263 117.809 61.4799C117.876 61.4336 117.956 61.4068 118.038 61.4024C118.088 61.4024 118.138 61.4126 118.184 61.4324C118.23 61.4523 118.272 61.4813 118.307 61.5177C118.344 61.5529 118.374 61.5957 118.394 61.6431C118.414 61.6906 118.423 61.7417 118.422 61.7932C118.421 61.8842 118.394 61.9731 118.345 62.0495L117.781 62.9529L118.954 62.9208C119.008 62.9176 119.063 62.9262 119.114 62.9461C119.165 62.9661 119.211 62.9968 119.248 63.0361C119.314 63.1128 119.35 63.2106 119.35 63.3116C119.35 63.4127 119.314 63.5104 119.248 63.5871C119.211 63.6265 119.165 63.6572 119.114 63.6771C119.063 63.697 119.008 63.7057 118.954 63.7025H117.768L118.294 64.5225C118.353 64.6215 118.386 64.734 118.39 64.8493C118.392 64.9012 118.383 64.9529 118.364 65.0014C118.346 65.0498 118.317 65.094 118.281 65.1312C118.247 65.1671 118.207 65.1959 118.161 65.2157C118.116 65.2355 118.068 65.246 118.018 65.2465C117.939 65.2446 117.862 65.22 117.796 65.1758C117.73 65.1315 117.678 65.0694 117.647 64.9966L117.115 64.0548L116.583 64.9966C116.552 65.0718 116.499 65.1364 116.432 65.1829C116.365 65.2295 116.287 65.2559 116.205 65.2593Z" fill="black"/>
<path id="Vector_194" d="M122.061 65.2593C122.011 65.2593 121.961 65.2491 121.915 65.2293C121.869 65.2095 121.827 65.1804 121.792 65.144C121.754 65.1064 121.724 65.0614 121.705 65.0118C121.685 64.9622 121.675 64.9091 121.677 64.8557C121.68 64.7659 121.704 64.6781 121.747 64.5994L122.324 63.7025H121.145C121.091 63.7053 121.036 63.6964 120.985 63.6765C120.934 63.6566 120.888 63.6262 120.85 63.5871C120.784 63.5104 120.748 63.4127 120.748 63.3116C120.748 63.2106 120.784 63.1128 120.85 63.0361C120.888 62.9971 120.934 62.9666 120.985 62.9467C121.036 62.9269 121.091 62.918 121.145 62.9208L122.305 62.9529L121.76 62.0879C121.709 62.0026 121.68 61.9056 121.677 61.806C121.675 61.7526 121.685 61.6995 121.705 61.6499C121.724 61.6003 121.754 61.5553 121.792 61.5177C121.828 61.4811 121.871 61.452 121.918 61.4322C121.966 61.4124 122.016 61.4023 122.068 61.4024C122.139 61.4013 122.21 61.4214 122.27 61.4602C122.331 61.4989 122.378 61.5546 122.407 61.6202L122.971 62.6261L123.509 61.6651C123.543 61.5903 123.597 61.5263 123.665 61.4799C123.732 61.4336 123.812 61.4068 123.894 61.4024C123.944 61.4016 123.994 61.4115 124.04 61.4314C124.087 61.4512 124.128 61.4807 124.163 61.5177C124.2 61.5529 124.23 61.5957 124.25 61.6431C124.27 61.6906 124.279 61.7418 124.278 61.7932C124.277 61.8842 124.251 61.9731 124.201 62.0495L123.637 62.9529L124.81 62.9208C124.864 62.9176 124.919 62.9262 124.97 62.9462C125.021 62.9661 125.067 62.9968 125.105 63.0361C125.17 63.1128 125.207 63.2106 125.207 63.3116C125.207 63.4127 125.17 63.5104 125.105 63.5871C125.067 63.6265 125.021 63.6572 124.97 63.6771C124.919 63.697 124.864 63.7057 124.81 63.7025H123.625L124.15 64.5225C124.209 64.6215 124.242 64.734 124.246 64.8493C124.248 64.9012 124.239 64.9529 124.22 65.0014C124.202 65.0498 124.173 65.094 124.137 65.1312C124.103 65.1671 124.063 65.1959 124.018 65.2157C123.972 65.2355 123.924 65.246 123.874 65.2465C123.795 65.2446 123.718 65.22 123.652 65.1758C123.586 65.1315 123.535 65.0694 123.503 64.9966L122.971 64.0548L122.439 64.9966C122.408 65.0718 122.355 65.1364 122.288 65.1829C122.221 65.2295 122.143 65.2559 122.061 65.2593Z" fill="black"/>
<path id="Vector_195" d="M127.943 65.2593C127.893 65.2593 127.843 65.2491 127.796 65.2293C127.75 65.2095 127.708 65.1804 127.674 65.144C127.636 65.1064 127.606 65.0614 127.586 65.0118C127.566 64.9622 127.557 64.9091 127.558 64.8557C127.561 64.7659 127.586 64.6781 127.629 64.5994L128.206 63.7025H127.033C126.978 63.7058 126.922 63.6972 126.87 63.6773C126.818 63.6574 126.771 63.6267 126.732 63.5871C126.666 63.5104 126.63 63.4127 126.63 63.3116C126.63 63.2106 126.666 63.1128 126.732 63.0361C126.771 62.9966 126.818 62.9659 126.87 62.946C126.922 62.9261 126.978 62.9175 127.033 62.9208L128.186 62.9529L127.642 62.0879C127.59 62.0026 127.562 61.9056 127.558 61.806C127.557 61.7526 127.566 61.6995 127.586 61.6499C127.606 61.6003 127.636 61.5553 127.674 61.5177C127.71 61.4811 127.753 61.452 127.8 61.4322C127.847 61.4124 127.898 61.4023 127.949 61.4024C128.021 61.4013 128.091 61.4214 128.152 61.4602C128.212 61.4989 128.26 61.5546 128.289 61.6202L128.853 62.6261L129.391 61.6651C129.425 61.5903 129.478 61.5263 129.546 61.4799C129.614 61.4336 129.693 61.4068 129.775 61.4024C129.826 61.4016 129.876 61.4115 129.922 61.4314C129.968 61.4512 130.01 61.4807 130.044 61.5177C130.082 61.5529 130.112 61.5957 130.131 61.6431C130.151 61.6906 130.161 61.7418 130.16 61.7932C130.159 61.8842 130.132 61.9731 130.083 62.0495L129.519 62.9529L130.691 62.9208C130.746 62.9176 130.801 62.9262 130.851 62.9462C130.902 62.9661 130.948 62.9968 130.986 63.0361C131.052 63.1128 131.088 63.2106 131.088 63.3116C131.088 63.4127 131.052 63.5104 130.986 63.5871C130.948 63.6265 130.902 63.6572 130.851 63.6771C130.801 63.697 130.746 63.7057 130.691 63.7025H129.506L130.031 64.5225C130.091 64.6215 130.124 64.734 130.128 64.8493C130.129 64.9012 130.121 64.9529 130.102 65.0014C130.083 65.0498 130.055 65.094 130.019 65.1312C129.985 65.1671 129.944 65.1959 129.899 65.2157C129.854 65.2355 129.805 65.246 129.756 65.2465C129.677 65.2446 129.6 65.22 129.534 65.1758C129.468 65.1315 129.416 65.0694 129.384 64.9966L128.853 64.0548L128.321 64.9966C128.289 65.0718 128.237 65.1364 128.17 65.1829C128.103 65.2295 128.024 65.2559 127.943 65.2593Z" fill="black"/>
<path id="Vector_196" d="M133.824 65.2595C133.774 65.2595 133.724 65.2493 133.678 65.2295C133.632 65.2096 133.59 65.1806 133.555 65.1442C133.517 65.1066 133.488 65.0616 133.468 65.012C133.448 64.9624 133.439 64.9093 133.44 64.8559C133.44 64.7657 133.464 64.6771 133.51 64.5996L134.087 63.7026H132.908C132.854 63.7054 132.799 63.6966 132.748 63.6767C132.698 63.6568 132.652 63.6264 132.614 63.5873C132.548 63.5106 132.511 63.4129 132.511 63.3118C132.511 63.2108 132.548 63.113 132.614 63.0363C132.652 62.9973 132.698 62.9668 132.748 62.9469C132.799 62.9271 132.854 62.9182 132.908 62.921L134.068 62.953L133.504 62.1202C133.453 62.0348 133.424 61.9378 133.421 61.8382C133.419 61.7849 133.429 61.7317 133.449 61.6821C133.468 61.6326 133.498 61.5876 133.536 61.5499C133.572 61.5133 133.615 61.4842 133.662 61.4644C133.71 61.4446 133.76 61.4345 133.812 61.4346C133.883 61.4336 133.954 61.4536 134.014 61.4924C134.075 61.5311 134.122 61.5868 134.151 61.6525L134.715 62.6583L135.253 61.6973C135.287 61.6225 135.341 61.5585 135.409 61.5122C135.476 61.4658 135.556 61.439 135.638 61.4346C135.688 61.4338 135.738 61.4437 135.784 61.4636C135.831 61.4835 135.872 61.5129 135.907 61.5499C135.944 61.5851 135.974 61.6279 135.994 61.6754C136.014 61.7228 136.023 61.774 136.022 61.8254C136.021 61.9164 135.994 62.0053 135.945 62.0817L135.381 62.9851L136.554 62.953C136.608 62.9498 136.663 62.9585 136.714 62.9784C136.765 62.9983 136.811 63.029 136.848 63.0684C136.914 63.145 136.951 63.2428 136.951 63.3439C136.951 63.4449 136.914 63.5427 136.848 63.6194C136.811 63.6587 136.765 63.6894 136.714 63.7093C136.663 63.7293 136.608 63.7379 136.554 63.7347H135.368L135.894 64.5548C135.953 64.6537 135.986 64.7662 135.99 64.8815C135.992 64.9334 135.983 64.9852 135.964 65.0336C135.946 65.0821 135.917 65.1262 135.881 65.1634C135.847 65.1994 135.807 65.2281 135.761 65.2479C135.716 65.2678 135.668 65.2782 135.618 65.2787C135.539 65.2768 135.462 65.2523 135.396 65.208C135.33 65.1637 135.278 65.1016 135.247 65.0289L134.715 64.0871L134.183 65.0289C134.149 65.0952 134.097 65.1515 134.034 65.1919C133.972 65.2324 133.899 65.2557 133.824 65.2595Z" fill="black"/>
<path id="Vector_197" d="M139.706 65.2595C139.655 65.2595 139.606 65.2492 139.559 65.2294C139.513 65.2096 139.471 65.1806 139.437 65.1441C139.399 65.1065 139.369 65.0615 139.349 65.0119C139.329 64.9623 139.32 64.9092 139.321 64.8558C139.324 64.7661 139.348 64.6782 139.392 64.5996L139.968 63.7026H138.796C138.741 63.7067 138.686 63.6985 138.635 63.6785C138.584 63.6586 138.539 63.6274 138.501 63.5873C138.431 63.5125 138.393 63.4141 138.393 63.3118C138.393 63.2095 138.431 63.111 138.501 63.0363C138.539 62.9962 138.584 62.965 138.635 62.945C138.686 62.9251 138.741 62.9168 138.796 62.921L139.949 62.953L139.405 62.0881C139.353 62.0027 139.325 61.9057 139.321 61.8062C139.32 61.7538 139.328 61.7016 139.347 61.6527C139.366 61.6038 139.395 61.5591 139.431 61.5215C139.468 61.4838 139.511 61.4539 139.56 61.4335C139.608 61.413 139.66 61.4025 139.712 61.4025C139.784 61.4015 139.854 61.4216 139.915 61.4603C139.975 61.499 140.023 61.5547 140.052 61.6204L140.615 62.6262L141.154 61.6652C141.188 61.5904 141.241 61.5264 141.309 61.4801C141.377 61.4338 141.456 61.4069 141.538 61.4025C141.589 61.4009 141.639 61.4104 141.685 61.4303C141.732 61.4502 141.773 61.4801 141.807 61.5178C141.845 61.553 141.874 61.5958 141.894 61.6433C141.914 61.6907 141.924 61.7419 141.922 61.7933C141.922 61.8843 141.895 61.9732 141.846 62.0496L141.282 62.953L142.454 62.921C142.509 62.9177 142.563 62.9264 142.614 62.9463C142.665 62.9662 142.711 62.9969 142.749 63.0363C142.815 63.113 142.851 63.2107 142.851 63.3118C142.851 63.4129 142.815 63.5106 142.749 63.5873C142.711 63.6266 142.665 63.6573 142.614 63.6773C142.563 63.6972 142.509 63.7058 142.454 63.7026H141.269L141.794 64.5227C141.854 64.6217 141.887 64.7341 141.89 64.8494C141.892 64.8999 141.884 64.9502 141.866 64.9975C141.848 65.0448 141.821 65.0882 141.787 65.1251C141.752 65.162 141.711 65.1917 141.665 65.2125C141.619 65.2334 141.569 65.245 141.519 65.2466C141.44 65.2447 141.362 65.2202 141.297 65.1759C141.231 65.1316 141.179 65.0695 141.147 64.9968L140.615 64.055L140.084 64.9968C140.052 65.0719 140 65.1366 139.933 65.1831C139.866 65.2296 139.787 65.2561 139.706 65.2595Z" fill="black"/>
<path id="Vector_198" d="M145.587 65.2595C145.537 65.2595 145.487 65.2492 145.441 65.2294C145.395 65.2096 145.353 65.1806 145.318 65.1441C145.28 65.1065 145.251 65.0615 145.231 65.0119C145.211 64.9623 145.201 64.9092 145.203 64.8558C145.206 64.7661 145.23 64.6782 145.273 64.5996L145.85 63.7026H144.671C144.618 63.7057 144.564 63.697 144.514 63.6771C144.464 63.6572 144.419 63.6265 144.383 63.5873C144.313 63.5125 144.274 63.4141 144.274 63.3118C144.274 63.2095 144.313 63.111 144.383 63.0363C144.419 62.997 144.464 62.9664 144.514 62.9464C144.564 62.9265 144.618 62.9178 144.671 62.921L145.831 62.953L145.286 62.0881C145.235 62.0027 145.206 61.9057 145.203 61.8062C145.201 61.7538 145.21 61.7016 145.229 61.6527C145.248 61.6038 145.276 61.5591 145.313 61.5215C145.349 61.4838 145.393 61.4539 145.441 61.4335C145.489 61.413 145.541 61.4025 145.594 61.4025C145.665 61.4015 145.736 61.4216 145.796 61.4603C145.857 61.499 145.904 61.5547 145.933 61.6204L146.497 62.6262L147.035 61.6652C147.069 61.5904 147.123 61.5264 147.191 61.4801C147.259 61.4338 147.338 61.4069 147.42 61.4025C147.47 61.4009 147.521 61.4104 147.567 61.4303C147.614 61.4502 147.655 61.4801 147.689 61.5178C147.726 61.553 147.756 61.5958 147.776 61.6433C147.796 61.6907 147.805 61.7419 147.804 61.7933C147.803 61.8843 147.777 61.9732 147.727 62.0496L147.163 62.953L148.336 62.921C148.39 62.9177 148.445 62.9264 148.496 62.9463C148.547 62.9662 148.593 62.9969 148.631 63.0363C148.696 63.113 148.733 63.2107 148.733 63.3118C148.733 63.4129 148.696 63.5106 148.631 63.5873C148.593 63.6266 148.547 63.6573 148.496 63.6773C148.445 63.6972 148.39 63.7058 148.336 63.7026H147.151L147.676 64.5227C147.735 64.6217 147.768 64.7341 147.772 64.8494C147.774 64.8999 147.766 64.9502 147.748 64.9975C147.73 65.0448 147.703 65.0882 147.669 65.1251C147.634 65.162 147.593 65.1917 147.547 65.2125C147.501 65.2334 147.451 65.245 147.4 65.2466C147.321 65.2447 147.244 65.2202 147.178 65.1759C147.112 65.1316 147.061 65.0695 147.029 64.9968L146.497 64.055L145.965 64.9968C145.934 65.0719 145.881 65.1366 145.814 65.1831C145.748 65.2296 145.669 65.2561 145.587 65.2595Z" fill="black"/>
<path id="Vector_199" d="M151.443 65.2595C151.393 65.2595 151.343 65.2492 151.297 65.2294C151.25 65.2096 151.209 65.1806 151.174 65.1441C151.136 65.1065 151.106 65.0615 151.087 65.0119C151.067 64.9623 151.057 64.9092 151.059 64.8558C151.062 64.7661 151.086 64.6782 151.129 64.5996L151.706 63.7026H150.527C150.473 63.7057 150.42 63.697 150.37 63.6771C150.32 63.6572 150.275 63.6265 150.239 63.5873C150.169 63.5125 150.13 63.4141 150.13 63.3118C150.13 63.2095 150.169 63.111 150.239 63.0363C150.275 62.997 150.32 62.9664 150.37 62.9464C150.42 62.9265 150.473 62.9178 150.527 62.921L151.687 62.953L151.142 62.0881C151.091 62.0027 151.062 61.9057 151.059 61.8062C151.057 61.7528 151.067 61.6996 151.087 61.6501C151.106 61.6005 151.136 61.5555 151.174 61.5178C151.21 61.4812 151.253 61.4521 151.3 61.4323C151.347 61.4125 151.398 61.4024 151.45 61.4025C151.521 61.4015 151.592 61.4216 151.652 61.4603C151.713 61.499 151.76 61.5547 151.789 61.6204L152.353 62.6262L152.891 61.6652C152.925 61.5904 152.979 61.5264 153.047 61.4801C153.114 61.4338 153.194 61.4069 153.275 61.4025C153.326 61.4009 153.376 61.4104 153.423 61.4303C153.469 61.4502 153.511 61.4801 153.545 61.5178C153.582 61.553 153.612 61.5958 153.632 61.6433C153.652 61.6907 153.661 61.7419 153.66 61.7933C153.659 61.8843 153.632 61.9732 153.583 62.0496L153.019 62.953L154.192 62.921C154.246 62.9177 154.301 62.9264 154.352 62.9463C154.403 62.9662 154.449 62.9969 154.486 63.0363C154.552 63.113 154.588 63.2107 154.588 63.3118C154.588 63.4129 154.552 63.5106 154.486 63.5873C154.449 63.6266 154.403 63.6573 154.352 63.6773C154.301 63.6972 154.246 63.7058 154.192 63.7026H153.006L153.532 64.5227C153.591 64.6217 153.624 64.7341 153.628 64.8494C153.63 64.9013 153.621 64.9531 153.602 65.0015C153.584 65.05 153.555 65.0941 153.519 65.1313C153.485 65.1673 153.445 65.196 153.399 65.2159C153.354 65.2357 153.306 65.2462 153.256 65.2466C153.177 65.2447 153.1 65.2202 153.034 65.1759C152.968 65.1316 152.916 65.0695 152.885 64.9968L152.353 64.055L151.821 64.9968C151.79 65.0719 151.737 65.1366 151.67 65.1831C151.603 65.2296 151.525 65.2561 151.443 65.2595Z" fill="black"/>
<path id="Vector_200" d="M171.599 79.4307H179.435" stroke="white" stroke-width="1.81955" stroke-linecap="round" stroke-linejoin="round"/>
<path id="Vector_201" d="M62.9196 21.7373V73.7803C62.9196 75.2875 63.5183 76.733 64.584 77.7988C65.6498 78.8645 67.0952 79.4632 68.6024 79.4632H164.161" stroke="white" stroke-width="1.81955" stroke-linecap="round" stroke-linejoin="round"/>
<path id="Vector_202" d="M62.9196 7.9375V15.7411" stroke="white" stroke-width="1.81955" stroke-linecap="round" stroke-linejoin="round"/>
</g>
</g>
</svg>
