<svg width="70" height="54" viewBox="0 0 70 54" fill="none" xmlns="http://www.w3.org/2000/svg">
<g id="Logo" clip-path="url(#clip0_1137_16260)">
<g id="Layer 2">
<g id="Layer 1">
<path id="Vector" d="M49.8574 53.2669V43.1992H56.4211V44.6559H51.6795V47.4986H56.1215V48.9552H51.6795V53.2669H49.8574Z" fill="white"/>
<path id="Vector_2" d="M57.8574 53.2669V43.1992H59.6917V53.2669H57.8574Z" fill="white"/>
<path id="Vector_3" d="M64.2774 53.2652V44.7247H60.832V43.1914H69.5448V44.7247H66.0994V53.2652H64.2774Z" fill="white"/>
<path id="Vector_4" d="M4.48644 53.3658C3.72405 53.3692 2.9645 53.2723 2.22723 53.0775C1.59609 52.9201 0.996414 52.6557 0.454102 52.2956L1.17864 50.2593C1.64891 50.5705 2.1646 50.8064 2.7072 50.9585C3.28403 51.1287 3.88212 51.2155 4.48339 51.2161C4.93524 51.2539 5.38877 51.1669 5.79489 50.9647C5.90528 50.904 5.998 50.8155 6.06394 50.708C6.12988 50.6004 6.16675 50.4775 6.17092 50.3513C6.17351 50.2489 6.15121 50.1473 6.10594 50.0554C6.06067 49.9635 5.99378 49.8841 5.91106 49.8239C5.63028 49.6518 5.31877 49.5361 4.99392 49.4835L3.32168 49.1216C1.52409 48.7332 0.6253 47.7887 0.6253 46.2881C0.613123 45.6711 0.799675 45.0667 1.15724 44.5646C1.53599 44.0519 2.04932 43.6549 2.63994 43.4177C3.34414 43.1348 4.09794 42.9972 4.85635 43.0129C5.52249 43.0101 6.18523 43.1083 6.82208 43.3043C7.37326 43.4638 7.88684 43.7329 8.3323 44.0955L7.60776 46.0029C7.22977 45.7288 6.80796 45.5214 6.36046 45.3896C5.86487 45.2394 5.34958 45.165 4.8319 45.1688C4.40603 45.1421 3.98151 45.239 3.60905 45.4478C3.481 45.5187 3.37412 45.6226 3.29943 45.7487C3.22474 45.8749 3.18493 46.0187 3.18411 46.1654C3.18175 46.265 3.20362 46.3637 3.24783 46.453C3.29204 46.5422 3.35726 46.6193 3.43785 46.6775C3.71631 46.855 4.02873 46.972 4.35499 47.021L6.00277 47.3767C7.83705 47.7672 8.75418 48.6872 8.75418 50.1367C8.76169 50.7525 8.56965 51.354 8.20696 51.8509C7.82765 52.3568 7.31525 52.7465 6.72731 52.9764C6.01324 53.253 5.25168 53.3854 4.48644 53.3658Z" fill="#29B65C"/>
<path id="Vector_5" d="M8.68652 53.208L13.3731 43.168H15.4336L20.1171 53.208H17.5033L16.6381 51.1718H12.1655L11.3004 53.208H8.68652ZM14.3789 45.9034L13.0185 49.1632H15.7699L14.4064 45.9034H14.3789Z" fill="#29B65C"/>
<path id="Vector_6" d="M25.085 53.3644C23.6258 53.3644 22.5109 52.9944 21.7406 52.2543C20.9702 51.5143 20.585 50.4082 20.585 48.9363V43.168H23.1957V48.9639C23.1534 49.5585 23.3284 50.1482 23.6879 50.6229C24.067 50.9793 24.567 51.1776 25.0866 51.1776C25.6061 51.1776 26.1061 50.9793 26.4852 50.6229C26.8401 50.1486 27.0117 49.5614 26.9682 48.97V43.1741H29.5362V48.9363C29.5362 50.4082 29.1602 51.5143 28.4081 52.2543C27.6561 52.9944 26.5484 53.3644 25.085 53.3644Z" fill="#29B65C"/>
<path id="Vector_7" d="M31.2725 53.208V43.168H35.4179C37.1503 43.168 38.4944 43.6045 39.4503 44.4774C40.4061 45.3504 40.884 46.5811 40.884 48.1696C40.884 49.7683 40.4061 51.0052 39.4503 51.8802C38.4944 52.7552 37.1503 53.1948 35.4179 53.1988L31.2725 53.208ZM33.8863 51.086H35.2467C36.2433 51.086 36.977 50.8468 37.457 50.3653C37.937 49.8838 38.1724 49.1571 38.1724 48.1788C38.1724 47.2006 37.9309 46.4768 37.4478 46.0015C36.9648 45.5262 36.225 45.2901 35.2467 45.2901H33.8863V51.086Z" fill="#29B65C"/>
<path id="Vector_8" d="M42.4316 53.208V43.168H45.0455V53.208H42.4316Z" fill="#29B65C"/>
<path id="Vector_9" d="M55.458 11.4727H37.5494L13.7803 36.5422L31.5452 27.649L38.7569 27.5938L43.682 22.3837L35.1434 22.4021L40.6187 16.6675H50.4535L55.458 11.4727Z" fill="white"/>
<path id="Vector_10" d="M27.4515 5.83155H44.7762L49.7808 0.636719H24.3853L9.0752 16.7548H18.8947L11.9733 34.0904L32.5508 11.4833V11.4526H22.068L27.4515 5.83155Z" fill="#29B65C"/>
<path id="Vector_11" d="M51.7559 16.7269H53.6115L58.616 11.5352H56.7023L51.7559 16.7269Z" fill="white"/>
<path id="Vector_12" d="M55.1094 16.1689H56.962L60.1169 12.9336H58.1604L55.1094 16.1689Z" fill="white"/>
<path id="Vector_13" d="M58.6006 15.4649H60.4563L61.6547 14.1953H59.8387L58.6006 15.4649Z" fill="white"/>
<path id="Vector_14" d="M40.1445 27.5707H42.0002L47.0047 22.3789H45.0909L40.1445 27.5707Z" fill="white"/>
<path id="Vector_15" d="M43.498 27.0135H45.3537L48.5056 23.7812H46.5491L43.498 27.0135Z" fill="white"/>
<path id="Vector_16" d="M46.9922 26.3086H48.8479L50.0432 25.0391H48.2273L46.9922 26.3086Z" fill="white"/>
</g>
</g>
</g>
<defs>
<clipPath id="clip0_1137_16260">
<rect width="69.0909" height="52.7273" fill="white" transform="translate(0.454102 0.636719)"/>
</clipPath>
</defs>
</svg>
