<svg width="300" height="300" viewBox="0 0 300 300" fill="none" xmlns="http://www.w3.org/2000/svg">
<path d="M263.508 81.7558C249.882 61.0738 223.98 48.7918 198.948 51.1558C173.916 53.5198 150.876 70.3558 141.51 93.2218C136.71 104.892 135.21 117.984 128.058 128.424C120.726 139.128 108.504 145.512 96.5161 150.846C84.5281 156.18 71.9161 161.094 62.4781 170.046C53.0401 178.998 47.4781 193.398 53.0401 205.062C58.7281 216.918 73.0921 221.658 83.4661 229.938C93.8401 238.218 100.434 250.398 111.024 258.402C120.81 265.8 133.428 269.052 145.8 269.028C158.172 269.004 170.34 265.884 181.896 261.57C217.734 248.196 251.496 223.308 265.794 188.472C292.26 123.96 263.508 81.7558 263.508 81.7558Z" fill="#29B65C"/>
<g opacity="0.7">
<path d="M263.508 81.7558C249.882 61.0738 223.98 48.7918 198.948 51.1558C173.916 53.5198 150.876 70.3558 141.51 93.2218C136.71 104.892 135.21 117.984 128.058 128.424C120.726 139.128 108.504 145.512 96.5161 150.846C84.5281 156.18 71.9161 161.094 62.4781 170.046C53.0401 178.998 47.4781 193.398 53.0401 205.062C58.7281 216.918 73.0921 221.658 83.4661 229.938C93.8401 238.218 100.434 250.398 111.024 258.402C120.81 265.8 133.428 269.052 145.8 269.028C158.172 269.004 170.34 265.884 181.896 261.57C217.734 248.196 251.496 223.308 265.794 188.472C292.26 123.96 263.508 81.7558 263.508 81.7558Z" fill="white"/>
</g>
<path d="M215.358 244.074C215.358 244.074 224.058 244.026 233.706 230.586C242.136 218.832 226.134 182.442 217.164 174.072C208.194 165.702 190.734 211.416 192.762 222.996C195.648 239.496 208.086 243.654 215.358 244.074Z" fill="#29B65C"/>
<path d="M229.476 221.465L216.084 234.779L217.434 268.703H213C212.946 268.469 213.114 245.099 213.258 217.841L202.992 207.995C203.772 207.995 202.392 206.663 202.236 206.531L213.306 214.199C213.396 197.165 213.48 183.449 213.48 183.449L214.482 182.195L215.04 200.411L224.508 193.595C224.37 193.727 222.972 195.059 223.752 195.059L215.136 203.627L215.94 229.871L230.556 219.353C230.358 219.557 228.354 221.465 229.476 221.465Z" stroke="#263238" stroke-miterlimit="10"/>
<path d="M255.162 255.12C255.162 255.12 265.746 254.358 271.026 244.32C276.726 233.466 262.824 207.72 255.72 205.812C247.92 203.706 235.608 224.28 238.128 240.264C239.856 251.172 250.272 254.844 255.162 255.12Z" fill="#29B65C"/>
<path d="M263.106 235.44L255.726 241.302C255.498 227.538 255.306 216.546 255.306 216.546L254.4 215.514L254.064 229.572V229.878L247.8 224.964C247.8 224.964 248.802 225.984 248.286 225.99L253.986 232.188L253.602 248.352L244.14 240.906C244.14 240.906 245.556 242.352 244.83 242.358L253.512 251.802L253.464 253.668L253.41 255.678L253.116 268.428L256.176 268.392C256.104 264.294 256.038 259.992 255.972 255.696C255.912 252.036 255.84 248.37 255.792 244.848C255.792 244.584 255.792 244.338 255.792 244.08L262.572 236.658C261.948 236.664 263.106 235.44 263.106 235.44Z" stroke="#263238" stroke-miterlimit="10"/>
<path d="M241.98 263.009C240.996 262.217 239.226 262.235 237.672 262.301C237.786 261.311 238.2 260.333 238.32 259.337C238.415 258.823 238.364 258.293 238.172 257.807C237.979 257.321 237.655 256.899 237.234 256.589C235.53 255.389 232.53 255.857 230.178 256.541C230.502 254.213 228.024 251.945 224.706 251.585C221.388 251.225 217.698 252.845 216.726 255.119C215.382 253.835 212.7 253.319 210.462 253.919C208.224 254.519 206.634 256.193 206.748 257.807C205.032 257.693 203.118 257.615 201.696 258.353C199.608 259.445 199.752 261.653 198.144 263.081C197.624 262.982 197.088 263.026 196.591 263.207C196.095 263.389 195.657 263.702 195.324 264.113C194.778 264.827 194.682 265.643 194.352 266.411C193.68 267.947 191.448 268.139 189.318 268.811L242.622 269.255C243.78 268.883 244.77 268.091 244.722 267.233C244.674 266.375 243.24 265.679 242.13 266.105C242.514 266.123 243.126 263.921 241.98 263.009Z" fill="#29B65C"/>
<path d="M265.944 265.344C265.344 264.864 264.252 264.87 263.304 264.912C263.37 264.312 263.622 263.712 263.7 263.112C263.759 262.797 263.728 262.471 263.61 262.173C263.492 261.875 263.292 261.616 263.034 261.426C261.99 260.694 260.148 260.976 258.708 261.396C258.906 259.968 257.388 258.576 255.354 258.36C253.32 258.144 251.058 259.128 250.464 260.52C249.642 259.734 247.992 259.422 246.624 259.794C245.256 260.166 244.278 261.186 244.35 262.194C243.294 262.122 242.124 262.068 241.254 262.524C239.97 263.196 240.054 264.546 239.076 265.422C238.756 265.361 238.426 265.388 238.121 265.5C237.816 265.612 237.547 265.805 237.342 266.058C237.084 266.499 236.882 266.971 236.742 267.462C236.334 268.404 234.942 268.518 233.658 268.932L266.328 269.202C267.036 268.974 267.642 268.488 267.618 267.966C267.594 267.444 266.706 267.012 266.028 267.276C266.268 267.258 266.646 265.908 265.944 265.344Z" fill="#29B65C"/>
<path d="M133.986 161.694C132.513 160.684 130.792 160.096 129.009 159.994C127.226 159.891 125.449 160.278 123.871 161.113C122.292 161.948 120.972 163.199 120.052 164.73C119.133 166.261 118.65 168.014 118.656 169.8V169.86C118.358 169.478 117.982 169.164 117.554 168.937C117.126 168.711 116.655 168.578 116.171 168.546C115.688 168.515 115.203 168.587 114.749 168.756C114.295 168.926 113.883 169.19 113.538 169.53C113.332 167.569 112.383 165.762 110.885 164.48C109.387 163.198 107.454 162.539 105.485 162.639C103.516 162.739 101.66 163.59 100.3 165.017C98.9395 166.444 98.1779 168.338 98.172 170.31C97.8507 170.083 97.4771 169.942 97.0862 169.899C96.6952 169.856 96.2998 169.913 95.937 170.065C95.5742 170.217 95.2559 170.458 95.0118 170.766C94.7678 171.075 94.6062 171.44 94.542 171.828H149.064C149.064 170.512 148.686 169.224 147.976 168.116C147.266 167.009 146.254 166.128 145.059 165.578C143.863 165.028 142.535 164.832 141.232 165.013C139.929 165.195 138.705 165.746 137.706 166.602C137.376 165.657 136.904 164.767 136.308 163.962" stroke="#263238" stroke-linecap="round" stroke-linejoin="round"/>
<path d="M227.682 89.9343C229.475 89.3079 231.391 89.1198 233.272 89.3858C235.152 89.6517 236.942 90.364 238.491 91.4629C240.04 92.5619 241.303 94.0157 242.175 95.7027C243.047 97.3898 243.503 99.2611 243.504 101.16V101.232C243.866 100.769 244.322 100.388 244.841 100.114C245.361 99.8398 245.932 99.6784 246.519 99.6404C247.105 99.6024 247.693 99.6888 248.243 99.8939C248.794 100.099 249.295 100.418 249.714 100.83C249.982 98.4648 251.141 96.2905 252.957 94.7504C254.772 93.2102 257.106 92.4201 259.483 92.5409C261.861 92.6618 264.103 93.6846 265.752 95.4009C267.402 97.1172 268.335 99.3979 268.362 101.778C268.833 101.439 269.401 101.258 269.982 101.262C270.65 101.261 271.298 101.497 271.808 101.929C272.318 102.361 272.657 102.961 272.766 103.62H206.604C206.599 102.019 207.055 100.451 207.917 99.1022C208.779 97.7532 210.01 96.6806 211.465 96.0121C212.919 95.3437 214.535 95.1076 216.12 95.3321C217.705 95.5566 219.192 96.2322 220.404 97.2783C221.003 95.5487 221.993 93.9802 223.296 92.6943" stroke="#263238" stroke-linecap="round" stroke-linejoin="round"/>
<path d="M24.6299 76.1219H90.7919C90.7966 74.5212 90.3409 72.9528 89.479 71.6038C88.6172 70.2549 87.3856 69.1822 85.931 68.5138C84.4765 67.8453 82.8604 67.6093 81.2755 67.8338C79.6905 68.0583 78.2036 68.7338 76.9919 69.7799C76.0726 67.1245 74.2423 64.8807 71.8258 63.4466C69.4092 62.0125 66.5628 61.481 63.7915 61.9464C61.0203 62.4117 58.5036 63.8438 56.688 65.9886C54.8724 68.1333 53.8754 70.8519 53.8739 73.6619V73.7339C53.5118 73.2712 53.0561 72.8901 52.5365 72.6158C52.0169 72.3415 51.4452 72.18 50.8589 72.1421C50.2726 72.1041 49.6849 72.1905 49.1342 72.3955C48.5836 72.6006 48.0826 72.9197 47.6639 73.3319C47.396 70.9665 46.2363 68.7922 44.4211 67.252C42.606 65.7119 40.2719 64.9217 37.8944 65.0426C35.5169 65.1635 33.275 66.1862 31.6253 67.9025C29.9757 69.6188 29.0425 71.8995 29.0159 74.2799C28.5442 73.9406 27.9769 73.7599 27.3959 73.7639C26.7305 73.7665 26.0875 74.0048 25.5811 74.4364C25.0747 74.8681 24.7377 75.4653 24.6299 76.1219Z" fill="white" stroke="#263238" stroke-miterlimit="10"/>
<path d="M112.806 99.5098L114.858 112.338" stroke="#29B65C" stroke-miterlimit="10"/>
<path d="M105.048 104.052L113.586 114.39" stroke="#29B65C" stroke-miterlimit="10"/>
<path d="M103.698 112.83L111.69 115.956" stroke="#29B65C" stroke-miterlimit="10"/>
<path d="M63.1499 135.155V125.273" stroke="#263238" stroke-linecap="round" stroke-linejoin="round"/>
<path d="M39.8819 135.156H63.1499V127.866H39.8819V135.156Z" fill="white" stroke="#263238" stroke-linecap="round" stroke-linejoin="round"/>
<path d="M39.8821 135.155V125.273" stroke="#263238" stroke-linecap="round" stroke-linejoin="round"/>
<path d="M121.758 268.848H168.786V186.96H121.758V268.848Z" fill="white" stroke="#263238" stroke-linecap="round" stroke-linejoin="round"/>
<path d="M74.88 268.848H121.908L121.908 156.6H74.88L74.88 268.848Z" fill="white" stroke="#263238" stroke-linecap="round" stroke-linejoin="round"/>
<path d="M27.6361 268.854H74.6641L74.6641 134.958H27.6361L27.6361 268.854Z" fill="white" stroke="#263238" stroke-linecap="round" stroke-linejoin="round"/>
<path d="M65.9099 143.399V263.777" stroke="#29B65C" stroke-linecap="round" stroke-linejoin="round"/>
<path d="M55.626 143.399V263.777" stroke="#29B65C" stroke-linecap="round" stroke-linejoin="round"/>
<path d="M45.342 143.399V263.777" stroke="#29B65C" stroke-linecap="round" stroke-linejoin="round"/>
<path d="M35.064 143.399V263.777" stroke="#29B65C" stroke-linecap="round" stroke-linejoin="round"/>
<path d="M114.102 162.396V173.597V184.793V195.996V207.192V218.4V229.602V240.797V252V263.202V263.417" stroke="#29B65C" stroke-linecap="round" stroke-linejoin="round"/>
<path d="M103.818 162.396V173.597V184.793V195.996V207.192V218.4V229.602V240.797V252V263.202V263.417" stroke="#29B65C" stroke-linecap="round" stroke-linejoin="round"/>
<path d="M93.5281 162.396V173.597V184.793V195.996V207.192V218.4V229.602V240.797V252V263.202V263.417" stroke="#29B65C" stroke-linecap="round" stroke-linejoin="round"/>
<path d="M83.25 162.396V173.597V184.793V195.996V207.192V218.4V229.602V240.797V252V263.202V263.417" stroke="#29B65C" stroke-linecap="round" stroke-linejoin="round"/>
<path d="M114.102 162.396H112.086H102.474H92.856H83.25" stroke="#29B65C" stroke-linecap="round" stroke-linejoin="round"/>
<path d="M114.102 173.598H112.086H102.474H92.856H83.25" stroke="#29B65C" stroke-linecap="round" stroke-linejoin="round"/>
<path d="M114.102 184.794H112.086H102.474H92.856H83.25" stroke="#29B65C" stroke-linecap="round" stroke-linejoin="round"/>
<path d="M114.102 195.996H112.086H102.474H92.856H83.25" stroke="#29B65C" stroke-linecap="round" stroke-linejoin="round"/>
<path d="M114.102 207.191H112.086H102.474H92.856H83.25" stroke="#29B65C" stroke-linecap="round" stroke-linejoin="round"/>
<path d="M114.102 218.399H112.086H102.474H92.856H83.25" stroke="#29B65C" stroke-linecap="round" stroke-linejoin="round"/>
<path d="M114.102 229.602H112.086H102.474H92.856H83.25" stroke="#29B65C" stroke-linecap="round" stroke-linejoin="round"/>
<path d="M114.102 240.798H112.086H102.474H92.856H83.25" stroke="#29B65C" stroke-linecap="round" stroke-linejoin="round"/>
<path d="M114.102 252H112.086H102.474H92.856H83.25" stroke="#29B65C" stroke-linecap="round" stroke-linejoin="round"/>
<path d="M114.102 263.202H112.086H102.474H92.856H83.25" stroke="#29B65C" stroke-linecap="round" stroke-linejoin="round"/>
<path d="M164.184 193.716H128.634" stroke="#29B65C" stroke-linecap="round" stroke-linejoin="round"/>
<path d="M164.184 204.918H128.634" stroke="#29B65C" stroke-linecap="round" stroke-linejoin="round"/>
<path d="M164.184 216.113H128.634" stroke="#29B65C" stroke-linecap="round" stroke-linejoin="round"/>
<path d="M164.184 227.315H128.634" stroke="#29B65C" stroke-linecap="round" stroke-linejoin="round"/>
<path d="M164.184 238.518H128.634" stroke="#29B65C" stroke-linecap="round" stroke-linejoin="round"/>
<path d="M164.184 249.72H128.634" stroke="#29B65C" stroke-linecap="round" stroke-linejoin="round"/>
<path d="M164.184 260.916H128.634" stroke="#29B65C" stroke-linecap="round" stroke-linejoin="round"/>
<path d="M272.766 269.202H251.262H248.76H24.6299" stroke="#263238" stroke-linecap="round" stroke-linejoin="round"/>
<path d="M106.332 268.507C106.014 268.657 103.704 268.741 100.758 268.789C94.7581 268.891 86.1241 268.843 86.1241 268.843C86.1241 268.843 85.6561 268.843 85.4761 266.503C85.2961 264.163 86.4481 262.303 86.5801 261.325C87.1801 256.837 85.6501 254.965 85.6261 254.635C85.6021 254.305 94.0261 254.119 94.0261 254.119L96.7861 253.933L96.1861 257.881C96.1485 258.105 96.1285 258.331 96.1261 258.559C96.069 259.955 96.5066 261.326 97.3616 262.432C98.2166 263.537 99.4343 264.305 100.8 264.601H100.926C101.124 264.415 104.526 262.843 105.918 265.015C106.68 266.197 106.332 268.507 106.332 268.507Z" fill="#263238"/>
<mask id="mask0_84_21887" style="mask-type:luminance" maskUnits="userSpaceOnUse" x="85" y="253" width="22" height="16">
<path d="M106.332 268.507C106.014 268.657 103.704 268.741 100.758 268.789C94.7581 268.891 86.1241 268.843 86.1241 268.843C86.1241 268.843 85.6561 268.843 85.4761 266.503C85.2961 264.163 86.4481 262.303 86.5801 261.325C87.1801 256.837 85.6501 254.965 85.6261 254.635C85.6021 254.305 94.0261 254.119 94.0261 254.119L96.7861 253.933L96.1861 257.881C96.1485 258.105 96.1285 258.331 96.1261 258.559C96.069 259.955 96.5066 261.326 97.3616 262.432C98.2166 263.537 99.4343 264.305 100.8 264.601H100.926C101.124 264.415 104.526 262.843 105.918 265.015C106.68 266.197 106.332 268.507 106.332 268.507Z" fill="white"/>
</mask>
<g mask="url(#mask0_84_21887)">
<path opacity="0.2" d="M106.332 268.507C106.014 268.657 103.704 268.741 100.758 268.789C94.7581 268.891 86.1241 268.843 86.1241 268.843C86.1241 268.843 85.6561 268.843 85.4761 266.503C85.2961 264.163 86.4481 262.303 86.5801 261.325C87.1801 256.837 85.6501 254.965 85.6261 254.635C85.6021 254.305 94.0261 254.119 94.0261 254.119L96.7861 253.933L96.1861 257.881C96.1485 258.105 96.1285 258.331 96.1261 258.559C96.069 259.955 96.5066 261.326 97.3616 262.432C98.2166 263.537 99.4343 264.305 100.8 264.601H100.926C101.124 264.415 104.526 262.843 105.918 265.015C106.68 266.197 106.332 268.507 106.332 268.507Z" fill="white"/>
<path opacity="0.3" d="M100.758 268.8C94.7581 268.902 86.1241 268.854 86.1241 268.854C86.1241 268.854 85.6561 268.854 85.4761 266.514C85.2961 264.174 86.4481 262.314 86.5801 261.336C87.1801 256.848 85.6501 254.976 85.6261 254.646C85.6021 254.316 94.0261 254.13 94.0261 254.13L96.7861 253.944L96.1861 257.892C96.1485 258.116 96.1285 258.343 96.1261 258.57C94.2241 260.142 92.7121 261.408 92.7121 261.408C92.7121 261.408 100.422 263.952 100.758 268.8Z" fill="black"/>
</g>
<path d="M106.332 268.507C106.014 268.657 103.704 268.741 100.758 268.789C94.7581 268.891 86.1241 268.843 86.1241 268.843C86.1241 268.843 85.6561 268.843 85.4761 266.503C85.2961 264.163 86.4481 262.303 86.5801 261.325C87.1801 256.837 85.6501 254.965 85.6261 254.635C85.6021 254.305 94.0261 254.119 94.0261 254.119L96.7861 253.933L96.1861 257.881C96.1485 258.105 96.1285 258.331 96.1261 258.559C96.069 259.955 96.5066 261.326 97.3616 262.432C98.2166 263.537 99.4343 264.305 100.8 264.601H100.926C101.124 264.415 104.526 262.843 105.918 265.015C106.68 266.197 106.332 268.507 106.332 268.507Z" stroke="#263238" stroke-linecap="round" stroke-linejoin="round"/>
<path d="M98.6101 248.772C98.8921 250.278 99.5941 250.704 99.1381 251.412C99.0721 251.52 99.0061 251.646 98.9401 251.778C98.5861 252.51 98.2081 253.542 96.8161 253.932C95.1781 254.394 87.3361 254.82 85.6441 254.61C83.9521 254.4 82.9921 252.81 82.8961 251.466C82.8001 250.122 83.5321 249.282 83.4181 247.776C83.3041 246.27 82.1281 245.832 82.0501 244.83C81.9721 243.828 82.9441 242.37 82.9321 241.368C82.9321 239.256 82.9681 241.56 83.3881 229.554C83.6221 222.708 85.2781 221.22 83.3881 213.456C82.7041 210.654 75.3601 159.924 75.3601 159.924L98.0101 161.28C98.0101 161.28 98.3701 169.92 98.7781 180.126C99.2941 193.11 99.8881 208.626 99.9061 212.118C99.9421 219.21 99.3061 229.146 98.7721 237.966C98.5501 241.728 98.1721 244.32 98.7721 245.766C98.8433 245.917 98.886 246.079 98.8981 246.246C99.0001 247.2 98.3221 247.266 98.6101 248.772Z" fill="#29B65C"/>
<mask id="mask1_84_21887" style="mask-type:luminance" maskUnits="userSpaceOnUse" x="75" y="159" width="25" height="96">
<path d="M98.6101 248.772C98.8921 250.278 99.5941 250.704 99.1381 251.412C99.0721 251.52 99.0061 251.646 98.9401 251.778C98.5861 252.51 98.2081 253.542 96.8161 253.932C95.1781 254.394 87.3361 254.82 85.6441 254.61C83.9521 254.4 82.9921 252.81 82.8961 251.466C82.8001 250.122 83.5321 249.282 83.4181 247.776C83.3041 246.27 82.1281 245.832 82.0501 244.83C81.9721 243.828 82.9441 242.37 82.9321 241.368C82.9321 239.256 82.9681 241.56 83.3881 229.554C83.6221 222.708 85.2781 221.22 83.3881 213.456C82.7041 210.654 75.3601 159.924 75.3601 159.924L98.0101 161.28C98.0101 161.28 98.3701 169.92 98.7781 180.126C99.2941 193.11 99.8881 208.626 99.9061 212.118C99.9421 219.21 99.3061 229.146 98.7721 237.966C98.5501 241.728 98.1721 244.32 98.7721 245.766C98.8433 245.917 98.886 246.079 98.8981 246.246C99.0001 247.2 98.3221 247.266 98.6101 248.772Z" fill="white"/>
</mask>
<g mask="url(#mask1_84_21887)">
<path opacity="0.3" d="M98.9401 251.778C98.5861 252.51 98.2081 253.542 96.8161 253.932C95.1781 254.394 87.3361 254.82 85.6441 254.61C83.9521 254.4 82.9921 252.81 82.8961 251.466C82.8001 250.122 83.5321 249.282 83.4181 247.776C83.3041 246.27 82.1281 245.832 82.0501 244.83C81.9721 243.828 82.9441 242.37 82.9321 241.368C82.9321 239.256 82.9681 241.56 83.3881 229.554C83.6221 222.708 85.2781 221.22 83.3881 213.456C82.7041 210.654 75.3601 159.924 75.3601 159.924L98.0101 161.28C98.0101 161.28 98.3701 169.92 98.7781 180.126C96.0481 191.478 92.8801 203.97 91.6921 206.07L93.5641 209.34C93.5641 209.34 89.0881 219.726 89.0881 220.98C89.0881 222.234 90.6001 233.964 91.1221 236.4C91.6441 238.836 89.0881 237.102 89.0881 239.154C89.0881 241.044 88.8841 250.242 98.9401 251.778Z" fill="black"/>
</g>
<path d="M98.6101 248.772C98.8921 250.278 99.5941 250.704 99.1381 251.412C99.0721 251.52 99.0061 251.646 98.9401 251.778C98.5861 252.51 98.2081 253.542 96.8161 253.932C95.1781 254.394 87.3361 254.82 85.6441 254.61C83.9521 254.4 82.9921 252.81 82.8961 251.466C82.8001 250.122 83.5321 249.282 83.4181 247.776C83.3041 246.27 82.1281 245.832 82.0501 244.83C81.9721 243.828 82.9441 242.37 82.9321 241.368C82.9321 239.256 82.9681 241.56 83.3881 229.554C83.6221 222.708 85.2781 221.22 83.3881 213.456C82.7041 210.654 75.3601 159.924 75.3601 159.924L98.0101 161.28C98.0101 161.28 98.3701 169.92 98.7781 180.126C99.2941 193.11 99.8881 208.626 99.9061 212.118C99.9421 219.21 99.3061 229.146 98.7721 237.966C98.5501 241.728 98.1721 244.32 98.7721 245.766C98.8433 245.917 98.886 246.079 98.8981 246.246C99.0001 247.2 98.3221 247.266 98.6101 248.772Z" stroke="#263238" stroke-linecap="round" stroke-linejoin="round"/>
<path d="M96.876 177.679C96.876 177.679 94.098 180.079 91.728 179.647" stroke="#263238" stroke-linecap="round" stroke-linejoin="round"/>
<path d="M96.6 182.215C96.6 182.215 91.92 181.087 91.386 180.139" stroke="#263238" stroke-linecap="round" stroke-linejoin="round"/>
<path d="M90.6001 203.593C90.6001 203.593 93.1261 210.193 95.9341 211.789" stroke="#263238" stroke-linecap="round" stroke-linejoin="round"/>
<path d="M96.0601 247.398C96.0601 247.398 90.4501 249.132 87.6601 247.866C84.8701 246.6 89.8621 250.764 95.1061 250.398" stroke="#263238" stroke-linecap="round" stroke-linejoin="round"/>
<path d="M88.116 217.477C88.116 217.477 88.164 235.027 92.742 238.519" stroke="#263238" stroke-linecap="round" stroke-linejoin="round"/>
<path d="M92.8201 256.83C93.9026 256.399 95.0514 256.157 96.2161 256.116" stroke="#263238" stroke-linecap="round" stroke-linejoin="round"/>
<path d="M92.9219 259.105C92.9219 259.105 94.5479 258.505 95.7239 258.265" stroke="#263238" stroke-linecap="round" stroke-linejoin="round"/>
<path d="M93.228 261.282L95.85 260.496" stroke="#263238" stroke-linecap="round" stroke-linejoin="round"/>
<path d="M94.5061 263.065L96.6601 262.219" stroke="#263238" stroke-linecap="round" stroke-linejoin="round"/>
<path d="M96.948 264.594L98.202 263.628" stroke="#263238" stroke-linecap="round" stroke-linejoin="round"/>
<path d="M93.3599 254.664C93.3599 254.664 93.1499 260.664 95.0459 262.638C96.9419 264.612 98.9519 264.654 98.7779 265.41" stroke="#263238" stroke-linecap="round" stroke-linejoin="round"/>
<path d="M76.062 253.963C76.062 253.963 67.578 254.137 67.548 254.473C67.518 254.809 68.748 256.675 67.35 261.157C67.05 262.135 65.55 263.989 65.358 266.323C65.166 268.657 65.604 268.657 65.604 268.657C65.604 268.657 84.804 268.765 85.866 268.327C85.866 268.327 86.61 266.023 86.064 264.877C84.984 262.603 81.018 264.439 81.144 264.463H81.018C78.06 263.809 76.572 260.863 77.58 257.743L78.858 253.801L76.062 253.963Z" fill="#263238"/>
<mask id="mask2_84_21887" style="mask-type:luminance" maskUnits="userSpaceOnUse" x="65" y="253" width="22" height="16">
<path d="M76.062 253.963C76.062 253.963 67.578 254.137 67.548 254.473C67.518 254.809 68.748 256.675 67.35 261.157C67.05 262.135 65.55 263.989 65.358 266.323C65.166 268.657 65.604 268.657 65.604 268.657C65.604 268.657 84.804 268.765 85.866 268.327C85.866 268.327 86.61 266.023 86.064 264.877C84.984 262.603 81.018 264.439 81.144 264.463H81.018C78.06 263.809 76.572 260.863 77.58 257.743L78.858 253.801L76.062 253.963Z" fill="white"/>
</mask>
<g mask="url(#mask2_84_21887)">
<path opacity="0.25" d="M76.062 253.963C76.062 253.963 67.578 254.137 67.548 254.473C67.518 254.809 68.748 256.675 67.35 261.157C67.05 262.135 65.55 263.989 65.358 266.323C65.166 268.657 65.604 268.657 65.604 268.657C65.604 268.657 84.804 268.765 85.866 268.327C85.866 268.327 86.61 266.023 86.064 264.877C84.984 262.603 81.018 264.439 81.144 264.463H81.018C78.06 263.809 76.572 260.863 77.58 257.743L78.858 253.801L76.062 253.963Z" fill="white"/>
</g>
<path d="M76.062 253.963C76.062 253.963 67.578 254.137 67.548 254.473C67.518 254.809 68.748 256.675 67.35 261.157C67.05 262.135 65.55 263.989 65.358 266.323C65.166 268.657 65.604 268.657 65.604 268.657C65.604 268.657 84.804 268.765 85.866 268.327C85.866 268.327 86.61 266.023 86.064 264.877C84.984 262.603 81.018 264.439 81.144 264.463H81.018C78.06 263.809 76.572 260.863 77.58 257.743L78.858 253.801L76.062 253.963Z" stroke="#263238" stroke-linecap="round" stroke-linejoin="round"/>
<path d="M96 161.28L73.584 159.924C73.584 159.924 72.21 210.57 72.384 213.366C72.942 221.118 71.034 222.6 69.618 229.44C67.134 241.44 67.47 239.124 67.134 241.23C66.972 242.232 65.748 243.69 65.652 244.692C65.556 245.694 66.66 246.132 66.516 247.632C66.372 249.132 65.484 249.984 65.358 251.316C65.232 252.648 65.91 254.244 67.566 254.454C69.222 254.664 77.166 254.238 78.858 253.776C80.55 253.314 81.036 251.976 81.612 251.262C82.188 250.548 81.564 250.128 81.534 248.622C81.504 247.116 82.182 247.074 82.272 246.09C82.2884 245.929 82.2742 245.766 82.23 245.61C81.864 244.176 82.692 241.59 83.556 237.81C85.596 229.008 87.954 219.084 89.13 212.01C89.73 208.482 91.836 192.678 93.564 179.61C93.564 179.61 95.22 176.94 96.06 171.768" fill="#29B65C"/>
<mask id="mask3_84_21887" style="mask-type:luminance" maskUnits="userSpaceOnUse" x="65" y="159" width="32" height="96">
<path d="M96 161.28L73.584 159.924C73.584 159.924 72.21 210.57 72.384 213.366C72.942 221.118 71.034 222.6 69.618 229.44C67.134 241.44 67.47 239.124 67.134 241.23C66.972 242.232 65.748 243.69 65.652 244.692C65.556 245.694 66.66 246.132 66.516 247.632C66.372 249.132 65.484 249.984 65.358 251.316C65.232 252.648 65.91 254.244 67.566 254.454C69.222 254.664 77.166 254.238 78.858 253.776C80.55 253.314 81.036 251.976 81.612 251.262C82.188 250.548 81.564 250.128 81.534 248.622C81.504 247.116 82.182 247.074 82.272 246.09C82.2884 245.929 82.2742 245.766 82.23 245.61C81.864 244.176 82.692 241.59 83.556 237.81C85.596 229.008 87.954 219.084 89.13 212.01C89.73 208.482 91.836 192.678 93.564 179.61C93.564 179.61 95.22 176.94 96.06 171.768" fill="white"/>
</mask>
<g mask="url(#mask3_84_21887)">
<path opacity="0.3" d="M73.512 161.682L73.314 169.248C77.1077 169.556 80.9202 169.556 84.714 169.248C92.118 168.588 96.624 165.306 96.624 165.306L96.024 161.28C96.024 161.28 87.624 163.542 83.49 163.224C79.356 162.906 75.396 162.408 73.512 161.682Z" fill="black"/>
</g>
<path d="M96 161.28L73.584 159.924C73.584 159.924 72.21 210.57 72.384 213.366C72.942 221.118 71.034 222.6 69.618 229.44C67.134 241.44 67.47 239.124 67.134 241.23C66.972 242.232 65.748 243.69 65.652 244.692C65.556 245.694 66.66 246.132 66.516 247.632C66.372 249.132 65.484 249.984 65.358 251.316C65.232 252.648 65.91 254.244 67.566 254.454C69.222 254.664 77.166 254.238 78.858 253.776C80.55 253.314 81.036 251.976 81.612 251.262C82.188 250.548 81.564 250.128 81.534 248.622C81.504 247.116 82.182 247.074 82.272 246.09C82.2884 245.929 82.2742 245.766 82.23 245.61C81.864 244.176 82.692 241.59 83.556 237.81C85.596 229.008 87.954 219.084 89.13 212.01C89.73 208.482 91.836 192.678 93.564 179.61C93.564 179.61 95.22 176.94 96.06 171.768" stroke="#263238" stroke-linecap="round" stroke-linejoin="round"/>
<path d="M84.924 222.534C84.924 222.534 77.172 235.734 69.522 240.048" stroke="#263238" stroke-linecap="round" stroke-linejoin="round"/>
<path d="M69.3899 247.398L77.7119 248.448C78.3119 248.526 79.0859 248.766 79.0259 249.402C78.9659 250.038 78.3239 250.326 77.7719 250.524C75.919 251.216 73.9047 251.351 71.9759 250.914" stroke="#263238" stroke-linecap="round" stroke-linejoin="round"/>
<path d="M69.636 243.396C72.6255 245.111 76.0004 246.039 79.446 246.096" stroke="#263238" stroke-linecap="round" stroke-linejoin="round"/>
<path d="M74.8561 219.373C74.8561 219.373 79.0561 219.535 81.2161 219.343C79.6141 221.539 77.0161 222.493 74.5081 222.619" stroke="#263238" stroke-linecap="round" stroke-linejoin="round"/>
<path d="M77.9999 166.2C77.9999 166.2 77.3999 187.764 77.1839 196.734C76.9679 205.704 76.5839 216.162 76.5839 216.162C76.3803 216.482 76.242 216.84 76.1771 217.213C76.1123 217.587 76.122 217.97 76.2059 218.34L76.5419 219.444L76.3619 222.558C76.1208 222.841 75.9457 223.174 75.8492 223.533C75.7527 223.892 75.7372 224.268 75.8039 224.634C76.0919 225.768 73.7639 233.67 73.7639 233.67L73.3619 234.192C72.9507 234.684 72.6756 235.276 72.5641 235.907C72.4525 236.539 72.5083 237.189 72.7259 237.792L71.8919 244.56C71.4435 244.927 71.1431 245.444 71.046 246.015C70.949 246.587 71.0619 247.174 71.3639 247.668L70.5839 251.196C70.1882 251.532 69.9236 251.996 69.8369 252.508C69.7502 253.019 69.8469 253.545 70.1099 253.992L70.2419 254.19" stroke="#263238" stroke-linecap="round" stroke-linejoin="round"/>
<path d="M116.826 126.433C116.226 127.747 111.114 131.233 111.114 131.233C111.109 130.657 111.232 130.087 111.474 129.565C111.84 129.001 112.074 128.461 112.308 128.125C112.368 127.214 112.069 126.315 111.474 125.623C110.778 124.849 110.232 126.781 109.926 128.065C109.62 129.349 107.616 131.305 107.706 132.265C107.88 133.369 108.102 134.455 108.384 135.535C108.384 135.535 99.834 138.535 98.892 136.735C96.8974 132.868 94.6941 129.112 92.292 125.485C90.282 128.293 91.866 132.169 93 136.933C94.134 141.697 97.626 148.369 97.626 148.369C103.878 145.369 110.982 137.569 110.982 137.569C110.982 137.569 112.65 136.825 114.714 136.117C116.778 135.409 116.478 134.803 116.808 132.775C117.138 130.747 118.872 127.975 118.77 126.931C118.668 125.887 117.438 125.125 116.826 126.433Z" fill="white" stroke="#263238" stroke-linecap="round" stroke-linejoin="round"/>
<path d="M96.6 136.566C96.522 140.91 97.38 155.64 98.31 161.484L72.864 160.842V160.416C74.73 153.504 73.518 146.016 70.572 139.518C69.012 136.068 68.316 131.658 67.512 127.482C65.466 116.85 70.602 113.556 74.892 113.148C76.548 113.07 76.692 111.948 77.892 112.038C78.7203 112.139 79.5605 112.036 80.34 111.738C80.874 113.916 83.832 120.312 84.846 121.044C85.3385 121.433 85.9364 121.665 86.5623 121.71C87.1881 121.755 87.813 121.611 88.356 121.296C89.376 120.582 89.658 119.22 89.892 117.996C89.9974 117.333 90.1869 116.686 90.456 116.07C91.956 116.82 94.572 117.708 96.516 121.206C98.916 128.928 97.596 123.978 99.444 135.306C99.762 137.04 96.6 136.566 96.6 136.566Z" fill="white" stroke="#263238" stroke-linecap="round" stroke-linejoin="round"/>
<path d="M92.598 116.467L90.138 115.609C91.806 121.339 90.36 127.849 86.142 125.275C81.924 122.701 80.25 115.303 78.99 112.075C78.33 111.871 75.648 111.775 74.256 112.843C75.708 115.501 79.656 120.781 79.194 125.071C78.666 129.871 74.892 134.131 67.842 129.307C68.802 136.579 71.85 141.823 72.438 144.307C74.586 153.307 73.152 154.537 72.15 163.417C82.35 168.619 94.692 166.033 100.098 164.449C98.448 155.401 99.174 132.601 92.598 116.467Z" fill="#29B65C"/>
<mask id="mask4_84_21887" style="mask-type:luminance" maskUnits="userSpaceOnUse" x="67" y="111" width="34" height="56">
<path d="M92.598 116.467L90.138 115.609C91.806 121.339 90.36 127.849 86.142 125.275C81.924 122.701 80.25 115.303 78.99 112.075C78.33 111.871 75.648 111.775 74.256 112.843C75.708 115.501 79.656 120.781 79.194 125.071C78.666 129.871 74.892 134.131 67.842 129.307C68.802 136.579 71.85 141.823 72.438 144.307C74.586 153.307 73.152 154.537 72.15 163.417C82.35 168.619 94.692 166.033 100.098 164.449C98.448 155.401 99.174 132.601 92.598 116.467Z" fill="white"/>
</mask>
<g mask="url(#mask4_84_21887)">
<path opacity="0.3" d="M77.052 154.662C77.052 154.662 93.69 161.922 96.06 154.872C91.6928 155.821 87.1943 156.005 82.764 155.418L77.052 154.662Z" fill="black"/>
<path opacity="0.3" d="M71.1541 138.954L83.2441 129.354C83.2441 129.354 85.6441 135.954 79.2121 139.74C74.8621 142.302 71.1541 138.954 71.1541 138.954Z" fill="black"/>
</g>
<path d="M92.598 116.467L90.138 115.609C91.806 121.339 90.36 127.849 86.142 125.275C81.924 122.701 80.25 115.303 78.99 112.075C78.33 111.871 75.648 111.775 74.256 112.843C75.708 115.501 79.656 120.781 79.194 125.071C78.666 129.871 74.892 134.131 67.842 129.307C68.802 136.579 71.85 141.823 72.438 144.307C74.586 153.307 73.152 154.537 72.15 163.417C82.35 168.619 94.692 166.033 100.098 164.449C98.448 155.401 99.174 132.601 92.598 116.467Z" stroke="#263238" stroke-linecap="round" stroke-linejoin="round"/>
<path d="M96.06 154.639C95.9562 155.09 95.7502 155.512 95.4579 155.872C95.1657 156.232 94.7949 156.52 94.374 156.715" stroke="#263238" stroke-linecap="round" stroke-linejoin="round"/>
<path d="M91.692 157.363C86.6315 157.823 81.546 156.806 77.052 154.435" stroke="#263238" stroke-linecap="round" stroke-linejoin="round"/>
<path d="M115.008 116.7L109.8 130.59C109.708 130.838 109.673 131.104 109.699 131.367C109.725 131.63 109.811 131.884 109.95 132.108L110.916 133.656C111.39 134.418 113.064 134.646 113.784 134.154C114.047 133.978 114.255 133.73 114.384 133.44L119.52 119.562C119.653 119.245 119.689 118.895 119.623 118.558C119.556 118.22 119.391 117.91 119.148 117.666L117.528 116.1C117.381 115.954 117.206 115.839 117.013 115.763C116.82 115.687 116.613 115.652 116.406 115.66C116.198 115.668 115.995 115.719 115.808 115.809C115.621 115.899 115.455 116.027 115.32 116.184C115.185 116.336 115.08 116.511 115.008 116.7Z" fill="#263238"/>
<path d="M67.8301 120.438C67.9543 122.511 68.4545 124.544 69.3061 126.438C71.8081 132.39 81.3601 147.204 83.4541 148.206C85.5481 149.208 106.95 137.688 108.498 136.11C108.938 135.619 109.235 135.016 109.355 134.367C109.476 133.719 109.416 133.049 109.182 132.432C109.182 132.432 109.152 133.908 110.412 133.632C111.204 133.458 110.55 131.01 110.55 131.01C110.55 131.01 112.002 129.984 110.616 128.088C110.616 128.088 112.572 128.088 112.416 126.612C112.362 126.012 106.602 125.934 105.72 127.596C104.646 129.612 103.578 134.868 103.578 134.868C103.578 134.868 89.6341 138.468 86.7421 139.002L79.2001 122.46" fill="white"/>
<path d="M67.8301 120.438C67.9543 122.511 68.4545 124.544 69.3061 126.438C71.8081 132.39 81.3601 147.204 83.4541 148.206C85.5481 149.208 106.95 137.688 108.498 136.11C108.938 135.619 109.235 135.016 109.355 134.367C109.476 133.719 109.416 133.049 109.182 132.432C109.182 132.432 109.152 133.908 110.412 133.632C111.204 133.458 110.55 131.01 110.55 131.01C110.55 131.01 112.002 129.984 110.616 128.088C110.616 128.088 112.572 128.088 112.416 126.612C112.362 126.012 106.602 125.934 105.72 127.596C104.646 129.612 103.578 134.868 103.578 134.868C103.578 134.868 89.6341 138.468 86.7421 139.002L79.2001 122.46" stroke="#263238" stroke-linecap="round" stroke-linejoin="round"/>
<path d="M108.72 137.005C109.155 135.909 109.904 134.968 110.874 134.299C112.002 133.765 113.556 133.597 114.786 133.363C114.786 133.363 115.746 129.295 116.268 129.409C117.858 129.739 116.616 133.477 116.616 133.477" fill="white"/>
<path d="M108.72 137.005C109.155 135.909 109.904 134.968 110.874 134.299C112.002 133.765 113.556 133.597 114.786 133.363C114.786 133.363 115.746 129.295 116.268 129.409C117.858 129.739 116.616 133.477 116.616 133.477" stroke="#263238" stroke-linecap="round" stroke-linejoin="round"/>
<path d="M118.53 127.945C118.325 127.739 118.05 127.619 117.76 127.606C117.47 127.594 117.186 127.691 116.964 127.879C116.19 128.581 115.014 130.567 113.76 131.629" stroke="#263238" stroke-linecap="round" stroke-linejoin="round"/>
<path d="M107.4 132.216C107.742 131.46 110.172 130.182 110.652 131.82" stroke="#263238" stroke-linecap="round" stroke-linejoin="round"/>
<path d="M107.4 130.2C107.4 130.2 110.214 128.664 110.778 130.566" stroke="#263238" stroke-linecap="round" stroke-linejoin="round"/>
<path d="M107.754 128.4C107.754 128.4 108.924 128.172 109.182 128.148C110.112 128.058 111.126 127.938 111.63 127.938" stroke="#263238" stroke-linecap="round" stroke-linejoin="round"/>
<path d="M93.564 179.646C93.564 179.646 89.814 176.34 87.636 175.71L93.564 179.646Z" fill="#29B65C"/>
<path d="M93.564 179.646C93.564 179.646 89.814 176.34 87.636 175.71" stroke="#263238" stroke-linecap="round" stroke-linejoin="round"/>
<path d="M74.6279 256.867C75.7334 256.433 76.9035 256.188 78.0899 256.141" stroke="#263238" stroke-linecap="round" stroke-linejoin="round"/>
<path d="M74.5439 259.201C74.5439 259.201 76.2179 258.601 77.4119 258.343" stroke="#263238" stroke-linecap="round" stroke-linejoin="round"/>
<path d="M74.658 261.391L77.346 260.599" stroke="#263238" stroke-linecap="round" stroke-linejoin="round"/>
<path d="M75.78 263.203L78.012 262.345" stroke="#263238" stroke-linecap="round" stroke-linejoin="round"/>
<path d="M78.0901 264.756L79.4281 263.778" stroke="#263238" stroke-linecap="round" stroke-linejoin="round"/>
<path d="M75.3599 254.664C75.3599 254.664 74.6279 260.784 76.3619 262.77C78.0959 264.756 80.0879 264.816 79.8539 265.59" stroke="#263238" stroke-linecap="round" stroke-linejoin="round"/>
<path d="M89.904 115.363C89.904 115.363 92.436 125.233 88.374 125.983C82.836 127.003 78.99 112.057 78.99 112.057C79.836 112.003 79.938 111.649 80.676 111.229C80.676 111.229 86.862 123.601 89.904 115.363Z" fill="#263238"/>
<path d="M73.062 113.49C73.062 113.49 67.272 114.636 67.254 123.246C67.236 131.856 71.052 139.026 71.052 139.026C71.052 139.026 75.57 138.66 78.426 136.566C84.426 132.186 83.454 129.726 83.454 129.726L80.31 123.498C80.31 123.498 79.278 119.508 74.79 113.148L73.062 113.49Z" fill="#263238"/>
<path d="M92.9519 116.809C96.1079 125.767 96.2519 129.121 96.8219 133.255C96.8219 133.255 99.9119 132.655 100.386 131.971C100.386 131.971 98.8859 124.639 97.2659 120.847C96.2339 118.441 94.8779 117.601 92.9519 116.809Z" fill="#263238"/>
<path d="M89.8979 106.638C89.8979 106.638 89.4479 114.846 89.4779 115.506C89.5319 116.748 90.4319 118.398 89.6039 119.328C89.1473 119.758 88.5721 120.041 87.9527 120.141C87.3333 120.24 86.6983 120.152 86.1299 119.886C85.0043 119.326 84.0307 118.503 83.2919 117.486C81.8688 115.743 80.634 113.855 79.6079 111.852C80.2944 111.191 80.7987 110.365 81.0719 109.452C81.0719 109.452 81.2339 108.756 81.2399 108.72C81.449 107.029 81.4268 105.317 81.1739 103.632C80.8868 101.547 80.4027 99.4937 79.7279 97.5L89.8979 106.638Z" fill="white" stroke="#263238" stroke-linecap="round" stroke-linejoin="round"/>
<path d="M81.366 114.475C82.7861 114.938 84.1633 115.525 85.482 116.227L81.366 114.475Z" fill="#263238"/>
<path d="M81.366 114.475C82.7861 114.938 84.1633 115.525 85.482 116.227" stroke="#263238" stroke-linecap="round" stroke-linejoin="round"/>
<path d="M80.1121 86.7846C80.1121 86.7846 75.0001 89.7066 77.6461 97.3326C80.2921 104.959 86.1901 113.479 91.5361 112.333C96.8821 111.187 98.2681 100.567 95.4421 93.4866C92.6161 86.4066 85.4161 82.4886 80.1121 86.7846Z" fill="white" stroke="#263238" stroke-linecap="round" stroke-linejoin="round"/>
<path d="M95.358 100.86C95.394 101.46 95.148 102.012 94.812 102.06C94.476 102.108 94.17 101.58 94.134 100.956C94.098 100.332 94.332 99.81 94.68 99.786C95.028 99.762 95.322 100.23 95.358 100.86Z" fill="#263238"/>
<path d="M90.1439 100.614C90.1799 101.214 89.9399 101.76 89.6099 101.784C89.2799 101.808 88.9619 101.304 88.9259 100.686C88.8899 100.068 89.1299 99.5344 89.4719 99.4864C89.8139 99.4384 90.1019 99.9784 90.1439 100.614Z" fill="#263238"/>
<path d="M92.1059 88.0981C88.6799 84.7621 84.0179 83.7301 80.2859 86.7481C80.2859 86.7481 75.1799 89.6701 77.8259 97.3021C78.4672 99.1214 79.2433 100.89 80.1479 102.594L80.2439 102.678C80.2439 102.678 78.5639 101.004 85.2299 97.3201C87.4199 96.0841 90.6539 88.3741 92.1059 88.0981Z" fill="#263238" stroke="#263238" stroke-linecap="round" stroke-linejoin="round"/>
<path d="M86.7539 90.6C86.7539 90.6 87.2219 85.29 90.9179 85.11C92.8439 85.014 95.3879 87.6 95.7179 88.962C95.9249 89.8843 96.3951 90.7266 97.0713 91.3869C97.7476 92.0472 98.601 92.4971 99.5279 92.682C99.5279 92.682 98.4599 96.282 96.3779 96.546C92.9399 96.966 91.1579 96.162 88.9379 93.132C88.318 92.2522 87.6191 91.4308 86.8499 90.678L86.7539 90.6Z" fill="#263238" stroke="#263238" stroke-linecap="round" stroke-linejoin="round"/>
<path d="M81.252 100.801C81.252 100.801 79.23 96.6366 77.43 101.221C76.308 104.077 80.796 106.363 82.332 105.607" fill="white"/>
<path d="M81.252 100.801C81.252 100.801 79.23 96.6366 77.43 101.221C76.308 104.077 80.796 106.363 82.332 105.607" stroke="#263238" stroke-linecap="round" stroke-linejoin="round"/>
<path d="M93.288 98.2744C92.9477 98.651 92.7016 99.103 92.5702 99.5933C92.4387 100.084 92.4257 100.598 92.532 101.094C92.6873 102.184 93.0564 103.232 93.618 104.178L91.05 105" stroke="#263238" stroke-linecap="round" stroke-linejoin="round"/>
<path d="M88.8 106.878C89.2037 107.281 89.7139 107.56 90.2708 107.684C90.8276 107.807 91.408 107.769 91.9441 107.574" stroke="#263238" stroke-linecap="round" stroke-linejoin="round"/>
<path d="M85.926 98.2027C85.926 98.2027 87.726 96.2107 89.898 97.1707" stroke="#263238" stroke-linecap="round" stroke-linejoin="round"/>
<path d="M94.2781 97.6739C94.2781 97.6739 96.6361 96.9359 96.3361 99.0179" stroke="#263238" stroke-linecap="round" stroke-linejoin="round"/>
<path d="M81.2099 103.081C81.0012 103.088 80.7957 103.028 80.6231 102.911C80.4506 102.793 80.3199 102.624 80.2499 102.427C80.0759 102.049 80.0279 101.617 79.8539 101.227C79.7821 101.03 79.6501 100.861 79.4767 100.744C79.3033 100.626 79.0973 100.566 78.8879 100.573" fill="#263238"/>
<path d="M81.2099 103.081C81.0012 103.088 80.7957 103.028 80.6231 102.911C80.4506 102.793 80.3199 102.624 80.2499 102.427C80.0759 102.049 80.0279 101.617 79.8539 101.227C79.7821 101.03 79.6501 100.861 79.4767 100.744C79.3033 100.626 79.0973 100.566 78.8879 100.573" stroke="#263238" stroke-linecap="round" stroke-linejoin="round"/>
<path d="M88.6919 86.6223C88.4372 85.5492 88.0332 84.5172 87.4919 83.5563C87.4919 83.5563 88.4699 83.3103 89.0099 83.1963C88.8899 84.2463 88.7999 85.5663 88.6919 86.6223Z" fill="#263238" stroke="#263238" stroke-linecap="round" stroke-linejoin="round"/>
<path d="M89.718 112.104L89.76 113.904C89.3645 114.079 88.9274 114.137 88.5 114.072C86.196 113.802 83.874 108.672 83.73 108.378L83.778 108.432C86.502 111.438 88.524 112.086 89.718 112.104Z" fill="#263238"/>
<path d="M167.556 129.371H182.718" stroke="#263238" stroke-linecap="round" stroke-linejoin="round"/>
<path d="M150.162 129.371H165.558" stroke="#263238" stroke-linecap="round" stroke-linejoin="round"/>
<path d="M141.96 129.371H146.694" stroke="#263238" stroke-linecap="round" stroke-linejoin="round"/>
<path d="M154.41 137.604H182.658" stroke="#263238" stroke-linecap="round" stroke-linejoin="round"/>
<path d="M146.694 137.604H150.162" stroke="#263238" stroke-linecap="round" stroke-linejoin="round"/>
<path d="M167.052 145.842H182.598" stroke="#263238" stroke-linecap="round" stroke-linejoin="round"/>
<path d="M151.428 145.842H164.754" stroke="#263238" stroke-linecap="round" stroke-linejoin="round"/>
<path d="M164.922 154.073H182.538" stroke="#263238" stroke-linecap="round" stroke-linejoin="round"/>
<path d="M156.162 154.073H162.42" stroke="#263238" stroke-linecap="round" stroke-linejoin="round"/>
<path d="M216.726 154.374H172.578L174.792 129.06H218.94L216.726 154.374Z" fill="white" stroke="#263238" stroke-linecap="round" stroke-linejoin="round"/>
<path d="M218.94 129.065H174.792" stroke="#263238" stroke-linecap="round" stroke-linejoin="round"/>
<path d="M216.726 154.374H172.578L187.668 140.046L195.336 146.58L204.312 139.92L216.726 154.374Z" fill="white" stroke="#263238" stroke-linecap="round" stroke-linejoin="round"/>
<path d="M218.94 129.06L204.312 139.92L195.336 146.58L187.668 140.046L174.792 129.06H218.94Z" fill="white" stroke="#263238" stroke-linecap="round" stroke-linejoin="round"/>
<path d="M137.736 129.371H126.654" stroke="#263238" stroke-linecap="round" stroke-linejoin="round"/>
<path d="M180.198 100.374C171.354 107.574 155.028 111.972 155.028 111.972L163.254 103.158C159.241 101.866 155.779 99.2641 153.421 95.7692C151.064 92.2742 149.949 88.0889 150.254 83.8844C150.559 79.6799 152.268 75.6997 155.106 72.5821C157.943 69.4646 161.746 67.3902 165.903 66.6918C170.06 65.9933 174.332 66.7111 178.032 68.7301C181.733 70.7492 184.649 73.9524 186.311 77.8263C187.974 81.7001 188.288 86.0201 187.202 90.0935C186.116 94.1669 183.694 97.7578 180.324 100.29" fill="white"/>
<path d="M180.198 100.374C171.354 107.574 155.028 111.972 155.028 111.972L163.254 103.158C159.241 101.866 155.779 99.2641 153.421 95.7692C151.064 92.2742 149.949 88.0889 150.254 83.8844C150.559 79.6799 152.268 75.6997 155.106 72.5821C157.943 69.4646 161.746 67.3902 165.903 66.6918C170.06 65.9933 174.332 66.7111 178.032 68.7301C181.733 70.7492 184.649 73.9524 186.311 77.8263C187.974 81.7001 188.288 86.0201 187.202 90.0935C186.116 94.1669 183.694 97.7578 180.324 100.29" stroke="#263238" stroke-linecap="round" stroke-linejoin="round"/>
<path d="M180.648 77.1424C183.706 77.1424 186.186 74.663 186.186 71.6044C186.186 68.5459 183.706 66.0664 180.648 66.0664C177.589 66.0664 175.11 68.5459 175.11 71.6044C175.11 74.663 177.589 77.1424 180.648 77.1424Z" fill="#29B65C" stroke="#263238" stroke-linecap="round" stroke-linejoin="round"/>
<path d="M177.438 70.3683L180.648 73.9803L187.95 65.3403L187.692 65.0703L180.648 71.1303L178.782 69.0963L177.438 70.3683Z" fill="#263238" stroke="#263238" stroke-linecap="round" stroke-linejoin="round"/>
<path d="M159.288 80.6943H179.97" stroke="#263238" stroke-linecap="round" stroke-linejoin="round"/>
<path d="M158.82 86.0342H179.502" stroke="#263238" stroke-linecap="round" stroke-linejoin="round"/>
<path d="M158.358 91.374H179.034" stroke="#263238" stroke-linecap="round" stroke-linejoin="round"/>
<path d="M223.488 33.5703V43.0383L249.39 23.0703L223.488 33.5703Z" fill="#29B65C" stroke="#263238" stroke-linecap="round" stroke-linejoin="round"/>
<path d="M223.488 33.5701L249.984 22.7461L213.804 26.4961L223.488 33.5701Z" fill="#29B65C" stroke="#263238" stroke-linecap="round" stroke-linejoin="round"/>
<path d="M226.602 35.5321L239.076 44.7601L249.984 22.7461L226.602 35.5321Z" fill="#29B65C" stroke="#263238" stroke-linecap="round" stroke-linejoin="round"/>
<path d="M226.602 35.5322L223.488 43.0382L230.124 38.1362L226.602 35.5322Z" fill="#29B65C" stroke="#263238" stroke-linecap="round" stroke-linejoin="round"/>
<path d="M124.23 114.882C124.296 114.69 124.368 114.504 124.434 114.318" stroke="#263238" stroke-linecap="round" stroke-linejoin="round"/>
<path d="M125.22 112.05C130.8 95.3882 129.798 85.3742 138.858 69.2342C140.658 65.9702 149.772 50.5262 162.72 45.0182C169.452 42.1562 173.736 46.4282 172.002 49.4522C168.132 56.1842 153.918 48.1142 168.132 40.1462C181.284 32.7782 209.28 47.1842 222.402 43.0502" stroke="#263238" stroke-linecap="round" stroke-linejoin="round" stroke-dasharray="2 4"/>
<path d="M223.524 42.6358C223.71 42.5578 223.89 42.4738 224.07 42.3838" stroke="#263238" stroke-linecap="round" stroke-linejoin="round"/>
</svg>
